<svg width="483" height="754" viewBox="0 0 483 754" fill="none" xmlns="http://www.w3.org/2000/svg">
<g clip-path="url(#clip0_143_640)">
<rect width="483" height="754" fill="url(#paint0_linear_143_640)"/>
<g filter="url(#filter0_f_143_640)">
<ellipse cx="94" cy="86.5" rx="151" ry="157.5" fill="#C9A76A"/>
</g>
<g filter="url(#filter1_f_143_640)">
<ellipse cx="253" cy="57" rx="47" ry="70" fill="#B37531"/>
</g>
<g filter="url(#filter2_f_143_640)">
<ellipse cx="338" cy="126.5" rx="48" ry="49.5" fill="#FE5520"/>
</g>
<g filter="url(#filter3_f_143_640)">
<ellipse cx="467" cy="201.5" rx="29" ry="29.5" fill="#3D3332"/>
</g>
<g filter="url(#filter4_f_143_640)">
<ellipse cx="311" cy="-6.5" rx="84" ry="54.5" fill="#A24529"/>
</g>
<g filter="url(#filter5_f_143_640)">
<ellipse cx="457" cy="-3.5" rx="84" ry="54.5" fill="#784434"/>
</g>
<g filter="url(#filter6_f_143_640)">
<circle cx="458" cy="31" r="25" fill="#1F1A1A"/>
</g>
<g filter="url(#filter7_f_143_640)">
<ellipse cx="318" cy="145.5" rx="20" ry="20.5" fill="#32201B"/>
</g>
<g filter="url(#filter8_f_143_640)">
<path d="M515 94.5C515 163.259 461.274 219 395 219C328.726 219 275 163.259 275 94.5C275 25.7405 328.726 -30 395 -30C461.274 -30 515 25.7405 515 94.5Z" fill="url(#paint1_radial_143_640)"/>
<path d="M515 94.5C515 163.259 461.274 219 395 219C328.726 219 275 163.259 275 94.5C275 25.7405 328.726 -30 395 -30C461.274 -30 515 25.7405 515 94.5Z" fill="url(#paint2_linear_143_640)" fill-opacity="0.2"/>
</g>
<g opacity="0.5" filter="url(#filter9_f_143_640)">
<circle cx="1" cy="1" r="1" transform="matrix(1 0 0 -1 362 66)" fill="#D9D9D9"/>
</g>
<g filter="url(#filter10_ii_143_640)">
<path d="M292.5 34.293C324 69.793 407.5 119.793 393 168.793C378.5 217.793 335.5 211.293 287 219.793L263 178.793C311 172.793 336 173.793 345 163.293C354 152.793 338 138.793 338 138.793C338 138.793 287.5 90.793 270 72.793L292.5 34.293Z" fill="url(#paint3_linear_143_640)"/>
</g>
<path d="M292.5 34.293C324 69.793 407.5 119.793 393 168.793C378.5 217.793 335.5 211.293 287 219.793L263 178.793C311 172.793 336 173.793 345 163.293C354 152.793 338 138.793 338 138.793C338 138.793 287.5 90.793 270 72.793L292.5 34.293Z" stroke="#252528" stroke-opacity="0.6"/>
<g filter="url(#filter11_i_143_640)">
<path d="M413 -70.7075C400.563 -24.9057 340 51.2925 378 89.7925C416 128.293 451.184 102.072 498.407 88.1278L501.682 40.7329C456.017 56.694 434.067 68.7021 421.338 63.2969C408.609 57.8916 416.718 38.2388 416.718 38.2388C416.718 38.2388 440.619 -27.2057 448.295 -51.1084L413 -70.7075Z" fill="url(#paint4_linear_143_640)"/>
</g>
<g filter="url(#filter12_i_143_640)">
<path d="M381 283.292C393.472 237.5 402 141.292 443 128.292C484 115.292 511.843 139.852 545.5 175.792L519 230.292C487.708 193.403 479.644 170.139 465.931 168.353C452.217 166.567 449.257 187.62 449.257 187.62C449.257 187.62 436.722 256.156 431.234 280.653L381 283.292Z" fill="url(#paint5_linear_143_640)"/>
</g>
<path d="M381 283.292C393.472 237.5 402 141.292 443 128.292C484 115.292 511.843 139.852 545.5 175.792L519 230.292C487.708 193.403 479.644 170.139 465.931 168.353C452.217 166.567 449.257 187.62 449.257 187.62C449.257 187.62 436.722 256.156 431.234 280.653L381 283.292Z" stroke="url(#paint6_linear_143_640)"/>
<g opacity="0.3" filter="url(#filter13_f_143_640)">
<circle cx="1" cy="1" r="1" transform="matrix(1 0 0 -1 455 67)" fill="#D9D9D9"/>
</g>
<g opacity="0.2" filter="url(#filter14_f_143_640)">
<circle cx="1" cy="1" r="1" transform="matrix(1 0 0 -1 402 78)" fill="#D9D9D9"/>
</g>
<g opacity="0.2" filter="url(#filter15_f_143_640)">
<circle cx="1" cy="1" r="1" transform="matrix(1 0 0 -1 414 99)" fill="#D9D9D9"/>
</g>
<g opacity="0.2" filter="url(#filter16_f_143_640)">
<circle cx="1" cy="1" r="1" transform="matrix(1 0 0 -1 377 86)" fill="#D9D9D9"/>
</g>
<g opacity="0.2" filter="url(#filter17_f_143_640)">
<circle cx="1.5" cy="1.5" r="1.5" transform="matrix(1 0 0 -1 290 71)" fill="#D9D9D9"/>
</g>
<g opacity="0.25" filter="url(#filter18_f_143_640)">
<circle cx="1.5" cy="1.5" r="1.5" transform="matrix(1 0 0 -1 328 36)" fill="#D9D9D9"/>
</g>
<g opacity="0.35" filter="url(#filter19_f_143_640)">
<circle cx="2" cy="2" r="2" transform="matrix(1 0 0 -1 323 92)" fill="#D9D9D9"/>
</g>
<g opacity="0.3" filter="url(#filter20_f_143_640)">
<circle cx="1.5" cy="1.5" r="1.5" transform="matrix(1 0 0 -1 308 130)" fill="#D9D9D9"/>
</g>
<g opacity="0.2" filter="url(#filter21_f_143_640)">
<circle cx="1" cy="1" r="1" transform="matrix(1 0 0 -1 366 117)" fill="#D9D9D9"/>
</g>
<g opacity="0.8" filter="url(#filter22_f_143_640)">
<circle cx="1" cy="1" r="1" transform="matrix(1 0 0 -1 364 73)" fill="#D9D9D9"/>
</g>
<g opacity="0.2" filter="url(#filter23_f_143_640)">
<circle cx="1" cy="1" r="1" transform="matrix(1 0 0 -1 356 89)" fill="#D9D9D9"/>
</g>
<g opacity="0.3" filter="url(#filter24_f_143_640)">
<circle cx="1.5" cy="1.5" r="1.5" transform="matrix(1 0 0 -1 386 17)" fill="#D9D9D9"/>
</g>
<g opacity="0.7" filter="url(#filter25_df_143_640)">
<path d="M422.5 113.934L422.242 113.288C421.904 112.441 421.735 112.018 421.401 111.709C421.068 111.4 420.611 111.244 419.697 110.93L419 110.692L419.697 110.453C420.611 110.139 421.068 109.983 421.401 109.674C421.735 109.365 421.904 108.942 422.242 108.095L422.5 107.45L422.758 108.095C423.096 108.942 423.265 109.365 423.599 109.674C423.932 109.983 424.389 110.139 425.303 110.453L426 110.692L425.303 110.93C424.389 111.244 423.932 111.4 423.599 111.709C423.265 112.018 423.096 112.441 422.758 113.288L422.5 113.934Z" fill="#DDDAEA"/>
<path d="M422.5 112.592C422.722 112.055 422.923 111.654 423.259 111.343C423.567 111.057 423.954 110.88 424.47 110.692C423.954 110.504 423.567 110.327 423.259 110.041C422.923 109.73 422.722 109.33 422.5 108.793C422.278 109.33 422.077 109.73 421.741 110.041C421.433 110.327 421.045 110.504 420.529 110.692C421.045 110.88 421.433 111.057 421.741 111.343C422.077 111.654 422.278 112.055 422.5 112.592Z" stroke="#D3D1DE" stroke-linejoin="round"/>
</g>
<g opacity="0.35" filter="url(#filter26_df_143_640)">
<path d="M442 11.1152L441.779 10.5618C441.489 9.83615 441.344 9.4733 441.058 9.20862C440.773 8.94394 440.381 8.80967 439.597 8.54115L439 8.33636L439.597 8.13158C440.381 7.86306 440.773 7.72879 441.058 7.46411C441.344 7.19943 441.489 6.83658 441.779 6.11091L442 5.55749L442.221 6.11091C442.511 6.83658 442.656 7.19943 442.942 7.46411C443.227 7.72879 443.619 7.86306 444.403 8.13158L445 8.33636L444.403 8.54115C443.619 8.80967 443.227 8.94394 442.942 9.20862C442.656 9.4733 442.511 9.83615 442.221 10.5618L442 11.1152Z" fill="#DDDAEA"/>
<path d="M442 9.78223C442.137 9.46518 442.275 9.20176 442.466 8.98242L442.602 8.8418C442.837 8.6236 443.124 8.47699 443.483 8.33691C443.124 8.1968 442.837 8.04932 442.602 7.83105C442.337 7.5862 442.168 7.279 442 6.8916C441.832 7.279 441.663 7.5862 441.398 7.83105C441.163 8.0495 440.875 8.1967 440.516 8.33691C440.802 8.44869 441.043 8.5646 441.248 8.71777L441.398 8.8418C441.663 9.08684 441.832 9.39442 442 9.78223Z" stroke="#D3D1DE" stroke-linejoin="round"/>
</g>
<g opacity="0.5" filter="url(#filter27_df_143_640)">
<path d="M425.5 34.2725L425.316 33.8113C425.074 33.2066 424.953 32.9042 424.715 32.6836C424.477 32.463 424.151 32.3512 423.498 32.1274L423 31.9567L423.498 31.7861C424.151 31.5623 424.477 31.4504 424.715 31.2299C424.953 31.0093 425.074 30.7069 425.316 30.1022L425.5 29.641L425.684 30.1022C425.926 30.7069 426.047 31.0093 426.285 31.2299C426.523 31.4504 426.849 31.5623 427.502 31.7861L428 31.9567L427.502 32.1274C426.849 32.3512 426.523 32.463 426.285 32.6836C426.047 32.9042 425.926 33.2066 425.684 33.8113L425.5 34.2725Z" fill="#DDDAEA"/>
<path d="M425.5 32.9648C425.621 32.7103 425.754 32.494 425.945 32.3164C426.107 32.1663 426.298 32.0556 426.52 31.957C426.354 31.8838 426.208 31.8031 426.076 31.7051L425.945 31.5967C425.754 31.4194 425.621 31.2042 425.5 30.9502C425.406 31.1478 425.306 31.3228 425.175 31.4736L425.055 31.5967C424.892 31.7471 424.702 31.8583 424.479 31.957C424.702 32.0557 424.892 32.1661 425.055 32.3164C425.246 32.494 425.379 32.7103 425.5 32.9648Z" stroke="#D3D1DE" stroke-linejoin="round"/>
</g>
<g filter="url(#filter28_df_143_640)">
<path d="M351.833 24.7012L351.403 23.6251C350.84 22.2141 350.558 21.5086 350.002 20.9939C349.447 20.4792 348.685 20.2182 347.162 19.696L346 19.2978L347.162 18.8997C348.685 18.3775 349.447 18.1164 350.002 17.6018C350.558 17.0871 350.84 16.3815 351.403 14.9706L351.833 13.8945L352.263 14.9706C352.827 16.3815 353.109 17.0871 353.664 17.6018C354.22 18.1164 354.982 18.3775 356.505 18.8997L357.667 19.2978L356.505 19.696C354.982 20.2182 354.22 20.4792 353.664 20.9939C353.109 21.5086 352.827 22.2141 352.263 23.6251L351.833 24.7012Z" fill="#A69FCA"/>
<path d="M351.833 23.3545C352.36 22.0357 352.681 21.2231 353.324 20.627C353.943 20.0535 354.775 19.7608 356.126 19.2979C354.775 18.8349 353.943 18.5423 353.324 17.9688C352.681 17.3728 352.359 16.5604 351.833 15.2422C351.307 16.5604 350.985 17.3728 350.342 17.9688C349.723 18.5422 348.891 18.8349 347.54 19.2979C348.891 19.7608 349.723 20.0535 350.342 20.627C350.985 21.2231 351.307 22.0358 351.833 23.3545Z" stroke="#A69FCA" stroke-linejoin="round"/>
</g>
<g filter="url(#filter29_f_143_640)">
<ellipse cx="100" cy="39" rx="100" ry="89" fill="#C9A76A"/>
</g>
<g filter="url(#filter30_f_143_640)">
<ellipse cx="248.5" cy="3.5" rx="70.5" ry="12.5" fill="#893823"/>
</g>
<g filter="url(#filter31_f_143_640)">
<ellipse cx="307.5" cy="18.5" rx="35.5" ry="12.5" fill="#592F25"/>
</g>
<g filter="url(#filter32_f_143_640)">
<circle cx="80" cy="30" r="49" fill="#F86129"/>
</g>
<g filter="url(#filter33_f_143_640)">
<ellipse cx="43" cy="16" rx="48" ry="37" fill="#FF6B2F"/>
</g>
<g filter="url(#filter34_f_143_640)">
<circle cx="46" cy="-14" r="34" fill="#FF7437"/>
</g>
<g opacity="0.45" filter="url(#filter35_f_143_640)">
<circle cx="3" cy="3" r="3" transform="matrix(1 0 0 -1 43 40)" fill="#FF9971"/>
</g>
<g filter="url(#filter36_f_143_640)">
<ellipse cx="44.5" cy="58.5" rx="74.5" ry="71.5" fill="#C9A76A"/>
</g>
<g filter="url(#filter37_f_143_640)">
<ellipse cx="54" cy="-9" rx="34" ry="36" fill="#B37531"/>
</g>
<g opacity="0.2" filter="url(#filter38_f_143_640)">
<ellipse cx="436" cy="31" rx="59" ry="31" fill="black"/>
</g>
<g opacity="0.3" filter="url(#filter39_f_143_640)">
<path d="M114.388 139.804L143.087 138.783L146.712 134.055L143.074 107.548L130.986 84.8948L118.356 61.78L79.9998 122.001L114.388 139.804Z" fill="black"/>
</g>
</g>
<rect x="0.5" y="0.5" width="482" height="753" stroke="url(#paint7_linear_143_640)"/>
<defs>
<filter id="filter0_f_143_640" x="-307" y="-321" width="802" height="815" filterUnits="userSpaceOnUse" color-interpolation-filters="sRGB">
<feFlood flood-opacity="0" result="BackgroundImageFix"/>
<feBlend mode="normal" in="SourceGraphic" in2="BackgroundImageFix" result="shape"/>
<feGaussianBlur stdDeviation="125" result="effect1_foregroundBlur_143_640"/>
</filter>
<filter id="filter1_f_143_640" x="106" y="-113" width="294" height="340" filterUnits="userSpaceOnUse" color-interpolation-filters="sRGB">
<feFlood flood-opacity="0" result="BackgroundImageFix"/>
<feBlend mode="normal" in="SourceGraphic" in2="BackgroundImageFix" result="shape"/>
<feGaussianBlur stdDeviation="50" result="effect1_foregroundBlur_143_640"/>
</filter>
<filter id="filter2_f_143_640" x="190" y="-23" width="296" height="299" filterUnits="userSpaceOnUse" color-interpolation-filters="sRGB">
<feFlood flood-opacity="0" result="BackgroundImageFix"/>
<feBlend mode="normal" in="SourceGraphic" in2="BackgroundImageFix" result="shape"/>
<feGaussianBlur stdDeviation="50" result="effect1_foregroundBlur_143_640"/>
</filter>
<filter id="filter3_f_143_640" x="338" y="72" width="258" height="259" filterUnits="userSpaceOnUse" color-interpolation-filters="sRGB">
<feFlood flood-opacity="0" result="BackgroundImageFix"/>
<feBlend mode="normal" in="SourceGraphic" in2="BackgroundImageFix" result="shape"/>
<feGaussianBlur stdDeviation="50" result="effect1_foregroundBlur_143_640"/>
</filter>
<filter id="filter4_f_143_640" x="127" y="-161" width="368" height="309" filterUnits="userSpaceOnUse" color-interpolation-filters="sRGB">
<feFlood flood-opacity="0" result="BackgroundImageFix"/>
<feBlend mode="normal" in="SourceGraphic" in2="BackgroundImageFix" result="shape"/>
<feGaussianBlur stdDeviation="50" result="effect1_foregroundBlur_143_640"/>
</filter>
<filter id="filter5_f_143_640" x="273" y="-158" width="368" height="309" filterUnits="userSpaceOnUse" color-interpolation-filters="sRGB">
<feFlood flood-opacity="0" result="BackgroundImageFix"/>
<feBlend mode="normal" in="SourceGraphic" in2="BackgroundImageFix" result="shape"/>
<feGaussianBlur stdDeviation="50" result="effect1_foregroundBlur_143_640"/>
</filter>
<filter id="filter6_f_143_640" x="393" y="-34" width="130" height="130" filterUnits="userSpaceOnUse" color-interpolation-filters="sRGB">
<feFlood flood-opacity="0" result="BackgroundImageFix"/>
<feBlend mode="normal" in="SourceGraphic" in2="BackgroundImageFix" result="shape"/>
<feGaussianBlur stdDeviation="20" result="effect1_foregroundBlur_143_640"/>
</filter>
<filter id="filter7_f_143_640" x="198" y="25" width="240" height="241" filterUnits="userSpaceOnUse" color-interpolation-filters="sRGB">
<feFlood flood-opacity="0" result="BackgroundImageFix"/>
<feBlend mode="normal" in="SourceGraphic" in2="BackgroundImageFix" result="shape"/>
<feGaussianBlur stdDeviation="50" result="effect1_foregroundBlur_143_640"/>
</filter>
<filter id="filter8_f_143_640" x="125" y="-180" width="540" height="549" filterUnits="userSpaceOnUse" color-interpolation-filters="sRGB">
<feFlood flood-opacity="0" result="BackgroundImageFix"/>
<feBlend mode="normal" in="SourceGraphic" in2="BackgroundImageFix" result="shape"/>
<feGaussianBlur stdDeviation="75" result="effect1_foregroundBlur_143_640"/>
</filter>
<filter id="filter9_f_143_640" x="360" y="62" width="6" height="6" filterUnits="userSpaceOnUse" color-interpolation-filters="sRGB">
<feFlood flood-opacity="0" result="BackgroundImageFix"/>
<feBlend mode="normal" in="SourceGraphic" in2="BackgroundImageFix" result="shape"/>
<feGaussianBlur stdDeviation="1" result="effect1_foregroundBlur_143_640"/>
</filter>
<filter id="filter10_ii_143_640" x="261.185" y="32.4453" width="138.99" height="188.4" filterUnits="userSpaceOnUse" color-interpolation-filters="sRGB">
<feFlood flood-opacity="0" result="BackgroundImageFix"/>
<feBlend mode="normal" in="SourceGraphic" in2="BackgroundImageFix" result="shape"/>
<feColorMatrix in="SourceAlpha" type="matrix" values="0 0 0 0 0 0 0 0 0 0 0 0 0 0 0 0 0 0 127 0" result="hardAlpha"/>
<feOffset dx="9" dy="-1"/>
<feGaussianBlur stdDeviation="2.5"/>
<feComposite in2="hardAlpha" operator="arithmetic" k2="-1" k3="1"/>
<feColorMatrix type="matrix" values="0 0 0 0 0.14902 0 0 0 0 0.054902 0 0 0 0 0.0352941 0 0 0 1 0"/>
<feBlend mode="normal" in2="shape" result="effect1_innerShadow_143_640"/>
<feColorMatrix in="SourceAlpha" type="matrix" values="0 0 0 0 0 0 0 0 0 0 0 0 0 0 0 0 0 0 127 0" result="hardAlpha"/>
<feOffset dx="-1" dy="0.5"/>
<feGaussianBlur stdDeviation="0.5"/>
<feComposite in2="hardAlpha" operator="arithmetic" k2="-1" k3="1"/>
<feColorMatrix type="matrix" values="0 0 0 0 0.317647 0 0 0 0 0.25098 0 0 0 0 0.235294 0 0 0 1 0"/>
<feBlend mode="normal" in2="effect1_innerShadow_143_640" result="effect2_innerShadow_143_640"/>
</filter>
<filter id="filter11_i_143_640" x="365.635" y="-70.707" width="141.047" height="182.581" filterUnits="userSpaceOnUse" color-interpolation-filters="sRGB">
<feFlood flood-opacity="0" result="BackgroundImageFix"/>
<feBlend mode="normal" in="SourceGraphic" in2="BackgroundImageFix" result="shape"/>
<feColorMatrix in="SourceAlpha" type="matrix" values="0 0 0 0 0 0 0 0 0 0 0 0 0 0 0 0 0 0 127 0" result="hardAlpha"/>
<feOffset dx="7" dy="2"/>
<feGaussianBlur stdDeviation="2.5"/>
<feComposite in2="hardAlpha" operator="arithmetic" k2="-1" k3="1"/>
<feColorMatrix type="matrix" values="0 0 0 0 0.0980392 0 0 0 0 0.0470588 0 0 0 0 0.0431373 0 0 0 0.8 0"/>
<feBlend mode="normal" in2="shape" result="effect1_innerShadow_143_640"/>
</filter>
<filter id="filter12_i_143_640" x="380.336" y="124.268" width="170.764" height="161.561" filterUnits="userSpaceOnUse" color-interpolation-filters="sRGB">
<feFlood flood-opacity="0" result="BackgroundImageFix"/>
<feBlend mode="normal" in="SourceGraphic" in2="BackgroundImageFix" result="shape"/>
<feColorMatrix in="SourceAlpha" type="matrix" values="0 0 0 0 0 0 0 0 0 0 0 0 0 0 0 0 0 0 127 0" result="hardAlpha"/>
<feOffset dx="7" dy="2"/>
<feGaussianBlur stdDeviation="2.5"/>
<feComposite in2="hardAlpha" operator="arithmetic" k2="-1" k3="1"/>
<feColorMatrix type="matrix" values="0 0 0 0 0.0980392 0 0 0 0 0.0470588 0 0 0 0 0.0431373 0 0 0 0.3 0"/>
<feBlend mode="normal" in2="shape" result="effect1_innerShadow_143_640"/>
</filter>
<filter id="filter13_f_143_640" x="453" y="63" width="6" height="6" filterUnits="userSpaceOnUse" color-interpolation-filters="sRGB">
<feFlood flood-opacity="0" result="BackgroundImageFix"/>
<feBlend mode="normal" in="SourceGraphic" in2="BackgroundImageFix" result="shape"/>
<feGaussianBlur stdDeviation="1" result="effect1_foregroundBlur_143_640"/>
</filter>
<filter id="filter14_f_143_640" x="400" y="74" width="6" height="6" filterUnits="userSpaceOnUse" color-interpolation-filters="sRGB">
<feFlood flood-opacity="0" result="BackgroundImageFix"/>
<feBlend mode="normal" in="SourceGraphic" in2="BackgroundImageFix" result="shape"/>
<feGaussianBlur stdDeviation="1" result="effect1_foregroundBlur_143_640"/>
</filter>
<filter id="filter15_f_143_640" x="412" y="95" width="6" height="6" filterUnits="userSpaceOnUse" color-interpolation-filters="sRGB">
<feFlood flood-opacity="0" result="BackgroundImageFix"/>
<feBlend mode="normal" in="SourceGraphic" in2="BackgroundImageFix" result="shape"/>
<feGaussianBlur stdDeviation="1" result="effect1_foregroundBlur_143_640"/>
</filter>
<filter id="filter16_f_143_640" x="375" y="82" width="6" height="6" filterUnits="userSpaceOnUse" color-interpolation-filters="sRGB">
<feFlood flood-opacity="0" result="BackgroundImageFix"/>
<feBlend mode="normal" in="SourceGraphic" in2="BackgroundImageFix" result="shape"/>
<feGaussianBlur stdDeviation="1" result="effect1_foregroundBlur_143_640"/>
</filter>
<filter id="filter17_f_143_640" x="288" y="66" width="7" height="7" filterUnits="userSpaceOnUse" color-interpolation-filters="sRGB">
<feFlood flood-opacity="0" result="BackgroundImageFix"/>
<feBlend mode="normal" in="SourceGraphic" in2="BackgroundImageFix" result="shape"/>
<feGaussianBlur stdDeviation="1" result="effect1_foregroundBlur_143_640"/>
</filter>
<filter id="filter18_f_143_640" x="326" y="31" width="7" height="7" filterUnits="userSpaceOnUse" color-interpolation-filters="sRGB">
<feFlood flood-opacity="0" result="BackgroundImageFix"/>
<feBlend mode="normal" in="SourceGraphic" in2="BackgroundImageFix" result="shape"/>
<feGaussianBlur stdDeviation="1" result="effect1_foregroundBlur_143_640"/>
</filter>
<filter id="filter19_f_143_640" x="321" y="86" width="8" height="8" filterUnits="userSpaceOnUse" color-interpolation-filters="sRGB">
<feFlood flood-opacity="0" result="BackgroundImageFix"/>
<feBlend mode="normal" in="SourceGraphic" in2="BackgroundImageFix" result="shape"/>
<feGaussianBlur stdDeviation="1" result="effect1_foregroundBlur_143_640"/>
</filter>
<filter id="filter20_f_143_640" x="306" y="125" width="7" height="7" filterUnits="userSpaceOnUse" color-interpolation-filters="sRGB">
<feFlood flood-opacity="0" result="BackgroundImageFix"/>
<feBlend mode="normal" in="SourceGraphic" in2="BackgroundImageFix" result="shape"/>
<feGaussianBlur stdDeviation="1" result="effect1_foregroundBlur_143_640"/>
</filter>
<filter id="filter21_f_143_640" x="364" y="113" width="6" height="6" filterUnits="userSpaceOnUse" color-interpolation-filters="sRGB">
<feFlood flood-opacity="0" result="BackgroundImageFix"/>
<feBlend mode="normal" in="SourceGraphic" in2="BackgroundImageFix" result="shape"/>
<feGaussianBlur stdDeviation="1" result="effect1_foregroundBlur_143_640"/>
</filter>
<filter id="filter22_f_143_640" x="362" y="69" width="6" height="6" filterUnits="userSpaceOnUse" color-interpolation-filters="sRGB">
<feFlood flood-opacity="0" result="BackgroundImageFix"/>
<feBlend mode="normal" in="SourceGraphic" in2="BackgroundImageFix" result="shape"/>
<feGaussianBlur stdDeviation="1" result="effect1_foregroundBlur_143_640"/>
</filter>
<filter id="filter23_f_143_640" x="354" y="85" width="6" height="6" filterUnits="userSpaceOnUse" color-interpolation-filters="sRGB">
<feFlood flood-opacity="0" result="BackgroundImageFix"/>
<feBlend mode="normal" in="SourceGraphic" in2="BackgroundImageFix" result="shape"/>
<feGaussianBlur stdDeviation="1" result="effect1_foregroundBlur_143_640"/>
</filter>
<filter id="filter24_f_143_640" x="384" y="12" width="7" height="7" filterUnits="userSpaceOnUse" color-interpolation-filters="sRGB">
<feFlood flood-opacity="0" result="BackgroundImageFix"/>
<feBlend mode="normal" in="SourceGraphic" in2="BackgroundImageFix" result="shape"/>
<feGaussianBlur stdDeviation="1" result="effect1_foregroundBlur_143_640"/>
</filter>
<filter id="filter25_df_143_640" x="417.4" y="105.849" width="10.2" height="9.68438" filterUnits="userSpaceOnUse" color-interpolation-filters="sRGB">
<feFlood flood-opacity="0" result="BackgroundImageFix"/>
<feColorMatrix in="SourceAlpha" type="matrix" values="0 0 0 0 0 0 0 0 0 0 0 0 0 0 0 0 0 0 127 0" result="hardAlpha"/>
<feOffset/>
<feGaussianBlur stdDeviation="0.8"/>
<feComposite in2="hardAlpha" operator="out"/>
<feColorMatrix type="matrix" values="0 0 0 0 1 0 0 0 0 1 0 0 0 0 1 0 0 0 0.95 0"/>
<feBlend mode="normal" in2="BackgroundImageFix" result="effect1_dropShadow_143_640"/>
<feBlend mode="normal" in="SourceGraphic" in2="effect1_dropShadow_143_640" result="shape"/>
<feGaussianBlur stdDeviation="0.5" result="effect2_foregroundBlur_143_640"/>
</filter>
<filter id="filter26_df_143_640" x="437.4" y="3.95762" width="9.2" height="8.75762" filterUnits="userSpaceOnUse" color-interpolation-filters="sRGB">
<feFlood flood-opacity="0" result="BackgroundImageFix"/>
<feColorMatrix in="SourceAlpha" type="matrix" values="0 0 0 0 0 0 0 0 0 0 0 0 0 0 0 0 0 0 127 0" result="hardAlpha"/>
<feOffset/>
<feGaussianBlur stdDeviation="0.8"/>
<feComposite in2="hardAlpha" operator="out"/>
<feColorMatrix type="matrix" values="0 0 0 0 1 0 0 0 0 1 0 0 0 0 1 0 0 0 0.95 0"/>
<feBlend mode="normal" in2="BackgroundImageFix" result="effect1_dropShadow_143_640"/>
<feBlend mode="normal" in="SourceGraphic" in2="effect1_dropShadow_143_640" result="shape"/>
<feGaussianBlur stdDeviation="0.75" result="effect2_foregroundBlur_143_640"/>
</filter>
<filter id="filter27_df_143_640" x="421.4" y="28.0406" width="8.2" height="7.83184" filterUnits="userSpaceOnUse" color-interpolation-filters="sRGB">
<feFlood flood-opacity="0" result="BackgroundImageFix"/>
<feColorMatrix in="SourceAlpha" type="matrix" values="0 0 0 0 0 0 0 0 0 0 0 0 0 0 0 0 0 0 127 0" result="hardAlpha"/>
<feOffset/>
<feGaussianBlur stdDeviation="0.8"/>
<feComposite in2="hardAlpha" operator="out"/>
<feColorMatrix type="matrix" values="0 0 0 0 1 0 0 0 0 1 0 0 0 0 1 0 0 0 0.95 0"/>
<feBlend mode="normal" in2="BackgroundImageFix" result="effect1_dropShadow_143_640"/>
<feBlend mode="normal" in="SourceGraphic" in2="effect1_dropShadow_143_640" result="shape"/>
<feGaussianBlur stdDeviation="0.5" result="effect2_foregroundBlur_143_640"/>
</filter>
<filter id="filter28_df_143_640" x="342" y="9.89453" width="19.6667" height="18.8066" filterUnits="userSpaceOnUse" color-interpolation-filters="sRGB">
<feFlood flood-opacity="0" result="BackgroundImageFix"/>
<feColorMatrix in="SourceAlpha" type="matrix" values="0 0 0 0 0 0 0 0 0 0 0 0 0 0 0 0 0 0 127 0" result="hardAlpha"/>
<feOffset/>
<feGaussianBlur stdDeviation="2"/>
<feComposite in2="hardAlpha" operator="out"/>
<feColorMatrix type="matrix" values="0 0 0 0 0.654902 0 0 0 0 0.627451 0 0 0 0 0.792157 0 0 0 1 0"/>
<feBlend mode="normal" in2="BackgroundImageFix" result="effect1_dropShadow_143_640"/>
<feBlend mode="normal" in="SourceGraphic" in2="effect1_dropShadow_143_640" result="shape"/>
<feGaussianBlur stdDeviation="0.75" result="effect2_foregroundBlur_143_640"/>
</filter>
<filter id="filter29_f_143_640" x="-150" y="-200" width="500" height="478" filterUnits="userSpaceOnUse" color-interpolation-filters="sRGB">
<feFlood flood-opacity="0" result="BackgroundImageFix"/>
<feBlend mode="normal" in="SourceGraphic" in2="BackgroundImageFix" result="shape"/>
<feGaussianBlur stdDeviation="75" result="effect1_foregroundBlur_143_640"/>
</filter>
<filter id="filter30_f_143_640" x="138" y="-49" width="221" height="105" filterUnits="userSpaceOnUse" color-interpolation-filters="sRGB">
<feFlood flood-opacity="0" result="BackgroundImageFix"/>
<feBlend mode="normal" in="SourceGraphic" in2="BackgroundImageFix" result="shape"/>
<feGaussianBlur stdDeviation="20" result="effect1_foregroundBlur_143_640"/>
</filter>
<filter id="filter31_f_143_640" x="212" y="-54" width="191" height="145" filterUnits="userSpaceOnUse" color-interpolation-filters="sRGB">
<feFlood flood-opacity="0" result="BackgroundImageFix"/>
<feBlend mode="normal" in="SourceGraphic" in2="BackgroundImageFix" result="shape"/>
<feGaussianBlur stdDeviation="30" result="effect1_foregroundBlur_143_640"/>
</filter>
<filter id="filter32_f_143_640" x="-119" y="-169" width="398" height="398" filterUnits="userSpaceOnUse" color-interpolation-filters="sRGB">
<feFlood flood-opacity="0" result="BackgroundImageFix"/>
<feBlend mode="normal" in="SourceGraphic" in2="BackgroundImageFix" result="shape"/>
<feGaussianBlur stdDeviation="75" result="effect1_foregroundBlur_143_640"/>
</filter>
<filter id="filter33_f_143_640" x="-55" y="-71" width="196" height="174" filterUnits="userSpaceOnUse" color-interpolation-filters="sRGB">
<feFlood flood-opacity="0" result="BackgroundImageFix"/>
<feBlend mode="normal" in="SourceGraphic" in2="BackgroundImageFix" result="shape"/>
<feGaussianBlur stdDeviation="25" result="effect1_foregroundBlur_143_640"/>
</filter>
<filter id="filter34_f_143_640" x="-18" y="-78" width="128" height="128" filterUnits="userSpaceOnUse" color-interpolation-filters="sRGB">
<feFlood flood-opacity="0" result="BackgroundImageFix"/>
<feBlend mode="normal" in="SourceGraphic" in2="BackgroundImageFix" result="shape"/>
<feGaussianBlur stdDeviation="15" result="effect1_foregroundBlur_143_640"/>
</filter>
<filter id="filter35_f_143_640" x="41" y="32" width="10" height="10" filterUnits="userSpaceOnUse" color-interpolation-filters="sRGB">
<feFlood flood-opacity="0" result="BackgroundImageFix"/>
<feBlend mode="normal" in="SourceGraphic" in2="BackgroundImageFix" result="shape"/>
<feGaussianBlur stdDeviation="1" result="effect1_foregroundBlur_143_640"/>
</filter>
<filter id="filter36_f_143_640" x="-130" y="-113" width="349" height="343" filterUnits="userSpaceOnUse" color-interpolation-filters="sRGB">
<feFlood flood-opacity="0" result="BackgroundImageFix"/>
<feBlend mode="normal" in="SourceGraphic" in2="BackgroundImageFix" result="shape"/>
<feGaussianBlur stdDeviation="50" result="effect1_foregroundBlur_143_640"/>
</filter>
<filter id="filter37_f_143_640" x="-25" y="-90" width="158" height="162" filterUnits="userSpaceOnUse" color-interpolation-filters="sRGB">
<feFlood flood-opacity="0" result="BackgroundImageFix"/>
<feBlend mode="normal" in="SourceGraphic" in2="BackgroundImageFix" result="shape"/>
<feGaussianBlur stdDeviation="22.5" result="effect1_foregroundBlur_143_640"/>
</filter>
<filter id="filter38_f_143_640" x="277" y="-100" width="318" height="262" filterUnits="userSpaceOnUse" color-interpolation-filters="sRGB">
<feFlood flood-opacity="0" result="BackgroundImageFix"/>
<feBlend mode="normal" in="SourceGraphic" in2="BackgroundImageFix" result="shape"/>
<feGaussianBlur stdDeviation="50" result="effect1_foregroundBlur_143_640"/>
</filter>
<filter id="filter39_f_143_640" x="49.9998" y="31.7803" width="126.712" height="138.023" filterUnits="userSpaceOnUse" color-interpolation-filters="sRGB">
<feFlood flood-opacity="0" result="BackgroundImageFix"/>
<feBlend mode="normal" in="SourceGraphic" in2="BackgroundImageFix" result="shape"/>
<feGaussianBlur stdDeviation="15" result="effect1_foregroundBlur_143_640"/>
</filter>
<linearGradient id="paint0_linear_143_640" x1="402.5" y1="-3.24201" x2="389.2" y2="746.629" gradientUnits="userSpaceOnUse">
<stop offset="0.0167662" stop-color="#72727D"/>
<stop offset="0.0419122" stop-color="#151517" stop-opacity="0"/>
</linearGradient>
<radialGradient id="paint1_radial_143_640" cx="0" cy="0" r="1" gradientUnits="userSpaceOnUse" gradientTransform="translate(395 104.5) rotate(99.4288) scale(140.397 140.397)">
<stop offset="0.39256" stop-color="#2D211F"/>
<stop offset="1" stop-color="#1B1718"/>
</radialGradient>
<linearGradient id="paint2_linear_143_640" x1="459.5" y1="9.5" x2="395" y2="219" gradientUnits="userSpaceOnUse">
<stop stop-color="#473734"/>
<stop offset="1" stop-color="#161515"/>
</linearGradient>
<linearGradient id="paint3_linear_143_640" x1="328.838" y1="34.293" x2="328.838" y2="219.793" gradientUnits="userSpaceOnUse">
<stop stop-color="#442017"/>
<stop offset="1" stop-color="#2E1D19"/>
</linearGradient>
<linearGradient id="paint4_linear_143_640" x1="414.5" y1="-14.5" x2="469" y2="108.5" gradientUnits="userSpaceOnUse">
<stop stop-color="#342420"/>
<stop offset="1" stop-color="#1F1717"/>
</linearGradient>
<linearGradient id="paint5_linear_143_640" x1="419" y1="107.5" x2="563" y2="280.5" gradientUnits="userSpaceOnUse">
<stop stop-color="#261B1A"/>
<stop offset="0.687849" stop-color="#171618"/>
</linearGradient>
<linearGradient id="paint6_linear_143_640" x1="403" y1="302.292" x2="525.5" y2="142.792" gradientUnits="userSpaceOnUse">
<stop offset="0.384338" stop-color="#1C1617"/>
<stop offset="1" stop-color="#1B1617"/>
</linearGradient>
<linearGradient id="paint7_linear_143_640" x1="11" y1="5.45473e-06" x2="391.525" y2="787.568" gradientUnits="userSpaceOnUse">
<stop stop-color="#B3905A"/>
<stop offset="0.23" stop-color="#412A1F" stop-opacity="0.4"/>
</linearGradient>
<clipPath id="clip0_143_640">
<rect width="483" height="754" fill="white"/>
</clipPath>
</defs>
</svg>
