<svg width="62" height="62" viewBox="0 0 62 62" fill="none" xmlns="http://www.w3.org/2000/svg">
<g clip-path="url(#clip0_104_4068)">
<mask id="mask0_104_4068" style="mask-type:luminance" maskUnits="userSpaceOnUse" x="0" y="0" width="62" height="62">
<path d="M61.25 0H0V61.25H61.25V0Z" fill="white"/>
</mask>
<g mask="url(#mask0_104_4068)">
<path d="M41.5968 11.625L52.5645 30.6254L41.5975 49.625H19.6528L8.68433 30.6246L19.6528 11.625H41.5968ZM25.7123 40.1532L21.0495 48.2269L20.8296 48.6076H40.4206L40.2001 48.2269L35.5379 40.1532L35.4642 40.0255H25.7854L25.7123 40.1532ZM10.3731 31.5151L19.7272 47.7178L19.9477 48.0993L20.1675 47.7178L24.8304 39.6392L24.9034 39.5123L24.8297 39.3854L20.1377 31.2606L20.0639 31.1337H10.1526L10.3731 31.5151ZM41.1118 31.2606L36.4192 39.3854L36.3462 39.5123L36.4192 39.6392L41.0813 47.7186L41.3018 48.0993L41.5216 47.7186L50.8764 31.5151L51.0963 31.1337H41.1848L41.1118 31.2606ZM25.7116 22.3687L21.019 30.4985L20.9459 30.6254L21.019 30.7523L25.7123 38.882L25.7854 39.0089H35.4642L35.5372 38.882L40.2306 30.7523L40.3036 30.6254L40.2306 30.4985L35.5372 22.3687L35.4642 22.2411H25.7854L25.7116 22.3687ZM19.728 13.5321L10.3731 29.7356L10.1526 30.117H20.0639L20.1377 29.9894L24.8304 21.8646L24.9034 21.7377L24.8304 21.6108L20.1682 13.5321L19.9477 13.1507L19.728 13.5321ZM41.0813 13.5321L36.4192 21.6108L36.3462 21.7384L36.4192 21.8653L41.1118 29.9894L41.1856 30.117H51.0969L50.8764 29.7356L41.5216 13.5321L41.3018 13.1514L41.0813 13.5321ZM21.0495 13.0238L25.7123 21.0975L25.7854 21.2244H35.4642L35.5372 21.0975L40.2001 13.0238L40.4199 12.6424H20.8296L21.0495 13.0238Z" stroke="#5D4E3C" stroke-opacity="0.7" stroke-width="0.508188"/>
</g>
</g>
<defs>
<clipPath id="clip0_104_4068">
<rect width="61.25" height="61.25" fill="white"/>
</clipPath>
</defs>
</svg>
