<svg width="568" height="110" viewBox="0 0 568 110" fill="none" xmlns="http://www.w3.org/2000/svg">
<path d="M66.4802 86.4004L59.7602 68.7604H22.0802L15.3602 86.4004H0.000195384L32.6402 3.60038H49.5602L82.2002 86.4004H66.4802ZM27.1202 55.5604H54.7202L40.9202 19.2004L27.1202 55.5604ZM126.941 23.7604C144.101 23.7604 157.061 37.5604 157.061 55.8004C157.061 74.0404 144.101 87.8404 126.941 87.8404C117.941 87.8404 110.381 84.0004 105.341 77.5204V109.2H91.9014V25.2004H105.341V34.0804C110.381 27.6004 117.941 23.7604 126.941 23.7604ZM124.301 74.8804C135.101 74.8804 143.141 66.6004 143.141 55.8004C143.141 45.0004 135.101 36.7204 124.301 36.7204C113.501 36.7204 105.341 45.0004 105.341 55.8004C105.341 66.6004 113.501 74.8804 124.301 74.8804ZM204.52 23.7604C221.68 23.7604 234.64 37.5604 234.64 55.8004C234.64 74.0404 221.68 87.8404 204.52 87.8404C195.52 87.8404 187.96 84.0004 182.92 77.5204V109.2H169.48V25.2004H182.92V34.0804C187.96 27.6004 195.52 23.7604 204.52 23.7604ZM201.88 74.8804C212.68 74.8804 220.72 66.6004 220.72 55.8004C220.72 45.0004 212.68 36.7204 201.88 36.7204C191.08 36.7204 182.92 45.0004 182.92 55.8004C182.92 66.6004 191.08 74.8804 201.88 74.8804ZM279.578 24.2404H281.858V38.0404H279.578C267.578 38.0404 260.498 45.3604 260.498 56.6404V86.4004H247.058V25.2004H260.498V34.2004C265.058 27.9604 271.538 24.2404 279.578 24.2404ZM318.871 87.8404C300.151 87.8404 286.111 74.0404 286.111 55.8004C286.111 37.5604 300.151 23.7604 318.871 23.7604C337.471 23.7604 351.631 37.5604 351.631 55.8004C351.631 74.0404 337.471 87.8404 318.871 87.8404ZM318.871 74.8804C329.671 74.8804 337.711 66.6004 337.711 55.8004C337.711 45.0004 329.671 36.7204 318.871 36.7204C308.071 36.7204 299.911 45.0004 299.911 55.8004C299.911 66.6004 308.071 74.8804 318.871 74.8804ZM411.896 25.2004H425.336V86.4004H411.896V77.6404C406.856 84.0004 399.416 87.8404 390.416 87.8404C373.136 87.8404 360.296 74.0404 360.296 55.8004C360.296 37.5604 373.136 23.7604 390.416 23.7604C399.416 23.7604 406.856 27.6004 411.896 33.9604V25.2004ZM393.056 74.8804C403.856 74.8804 411.896 66.6004 411.896 55.8004C411.896 45.0004 403.856 36.7204 393.056 36.7204C382.136 36.7204 374.096 45.0004 374.096 55.8004C374.096 66.6004 382.136 74.8804 393.056 74.8804ZM470.395 87.8404C451.675 87.8404 437.635 74.0404 437.635 55.8004C437.635 37.5604 451.675 23.7604 470.395 23.7604C482.635 23.7604 492.955 29.7604 498.475 39.0004L486.835 46.0804C483.595 40.4404 477.595 36.7204 470.395 36.7204C459.595 36.7204 451.435 45.0004 451.435 55.8004C451.435 66.6004 459.595 74.8804 470.395 74.8804C477.595 74.8804 483.595 71.1604 486.835 65.5204L498.475 72.6004C492.955 81.8404 482.635 87.8404 470.395 87.8404ZM543.403 23.7604C557.923 23.7604 567.643 33.3604 567.643 47.8804V86.4004H554.203V52.3204C554.203 42.9604 548.203 36.7204 538.963 36.7204C529.243 36.7204 522.763 43.0804 522.763 52.5604V86.4004H509.323V0.000387192H522.763V33.4804C527.683 27.1204 534.763 23.7604 543.403 23.7604Z" fill="#B37531"/>
</svg>
