<svg width="55" height="62" viewBox="0 0 55 62" fill="none" xmlns="http://www.w3.org/2000/svg">
<path d="M14.0977 38.4522L26.8468 45.5888L39.911 38.4522L27.0043 31.8535L14.0977 38.4522Z" fill="white" fill-opacity="0.4"/>
<path d="M47.6022 19.0667V42.1791L27.6259 53.0518L7.65039 42.1798V19.0661L27.6259 8.19922L47.6022 19.0667ZM46.2543 20.4346L38.2709 25.0539L38.1581 25.119V36.7229L28.2481 42.1155L28.1295 42.1798V51.6275L28.4644 51.4452L46.4764 41.6475L46.5951 41.5831V20.2371L46.2543 20.4346ZM27.5203 31.781L19.0355 36.239L18.6593 36.4365L19.0326 36.639L27.5174 41.2482L27.6259 41.3075L27.7344 41.2482L36.2149 36.6347L36.5875 36.4314L36.212 36.2339L27.7316 31.781L27.6259 31.7253L27.5203 31.781ZM26.7874 20.397L18.2144 25.0604L18.0957 25.1248V35.5887L18.4286 35.4144L27.0015 30.9115L27.1224 30.8479V20.2147L26.7874 20.397ZM27.5174 9.40214L9.53429 19.1904L9.17979 19.3836L9.52922 19.5861L17.4887 24.1852L17.5994 24.2488L17.7108 24.1881L27.6252 18.7955L37.5359 24.1888L37.648 24.2495L37.758 24.1859L45.7175 19.5861L46.0677 19.3836L45.7125 19.1904L27.7344 9.40214L27.6259 9.34355L27.5174 9.40214ZM37.151 25.1248L37.0324 25.0604L28.4644 20.3977L28.1295 20.2147V30.8529L28.251 30.9166L36.819 35.4144L37.151 35.5887V25.1248ZM17.0894 25.119L16.9758 25.0532L8.99748 20.4346L8.65673 20.2371V41.5831L8.77538 41.6475L26.7874 51.4452L27.1224 51.6275V42.1798L27.0044 42.1155L17.0894 36.7236V25.119Z" fill="white" stroke="#412A1F" stroke-opacity="0.7" stroke-width="0.453719"/>
</svg>
