<svg width="42" height="48" viewBox="0 0 42 48" fill="none" xmlns="http://www.w3.org/2000/svg">
<mask id="path-1-inside-1_104_4037" fill="white">
<path d="M20.6695 47.3323C20.6258 47.3327 20.5828 47.3213 20.5449 47.2996L0.185697 35.5425C0.148396 35.521 0.117504 35.4899 0.0961984 35.4525C0.0748925 35.415 0.0639414 35.3726 0.0644715 35.3295V11.9663C0.0639414 11.9232 0.0748925 11.8807 0.0961984 11.8433C0.117504 11.8058 0.148396 11.7748 0.185697 11.7533C0.222701 11.7306 0.265211 11.7188 0.30856 11.7188C0.351908 11.7188 0.394418 11.7306 0.431423 11.7533L20.7907 23.5102C20.8283 23.5308 20.8597 23.5612 20.8816 23.598C20.9036 23.6349 20.9151 23.677 20.9152 23.7199V47.0866C20.9158 47.13 20.9044 47.1729 20.8825 47.2103C20.8606 47.2479 20.8288 47.2788 20.7907 47.2996C20.7542 47.3217 20.7121 47.3331 20.6695 47.3323ZM0.555924 35.1886L20.4238 46.6573V23.8642L0.555924 12.3922V35.1886Z"/>
</mask>
<path d="M20.6695 47.3323C20.6258 47.3327 20.5828 47.3213 20.5449 47.2996L0.185697 35.5425C0.148396 35.521 0.117504 35.4899 0.0961984 35.4525C0.0748925 35.415 0.0639414 35.3726 0.0644715 35.3295V11.9663C0.0639414 11.9232 0.0748925 11.8807 0.0961984 11.8433C0.117504 11.8058 0.148396 11.7748 0.185697 11.7533C0.222701 11.7306 0.265211 11.7188 0.30856 11.7188C0.351908 11.7188 0.394418 11.7306 0.431423 11.7533L20.7907 23.5102C20.8283 23.5308 20.8597 23.5612 20.8816 23.598C20.9036 23.6349 20.9151 23.677 20.9152 23.7199V47.0866C20.9158 47.13 20.9044 47.1729 20.8825 47.2103C20.8606 47.2479 20.8288 47.2788 20.7907 47.2996C20.7542 47.3217 20.7121 47.3331 20.6695 47.3323ZM0.555924 35.1886L20.4238 46.6573V23.8642L0.555924 12.3922V35.1886Z" fill="#9B8B7A"/>
<path d="M20.6695 47.3323L20.6829 46.5351L20.6733 46.535L20.6637 46.535L20.6695 47.3323ZM20.5449 47.2996L20.1462 47.99L20.1476 47.9908L20.5449 47.2996ZM0.185697 35.5425L0.584433 34.8521L0.584285 34.852L0.185697 35.5425ZM0.0961984 35.4525L-0.596959 35.8466L-0.596597 35.8472L0.0961984 35.4525ZM0.0644715 35.3295L0.861812 35.3394V35.3295H0.0644715ZM0.0644715 11.9663H0.861872L0.861751 11.9564L0.0644715 11.9663ZM0.0961984 11.8433L0.788995 12.238L0.789355 12.2374L0.0961984 11.8433ZM0.185697 11.7533L0.584285 12.4438L0.593158 12.4387L0.601897 12.4334L0.185697 11.7533ZM0.431423 11.7533L0.0152228 12.4334L0.0238895 12.4387L0.0326885 12.4438L0.431423 11.7533ZM20.7907 23.5102L20.3919 24.2007L20.4 24.2054L20.4082 24.2099L20.7907 23.5102ZM20.8816 23.598L21.5672 23.1909L21.5668 23.1902L20.8816 23.598ZM20.9152 23.7199H21.7126L21.7125 23.7185L20.9152 23.7199ZM20.9152 47.0866H20.1178L20.1179 47.0968L20.9152 47.0866ZM20.8825 47.2103L20.1943 46.8077L20.1939 46.8083L20.8825 47.2103ZM20.7907 47.2996L20.4085 46.5998L20.3925 46.6085L20.3769 46.618L20.7907 47.2996ZM0.555924 35.1886H-0.241416V35.649L0.157306 35.8792L0.555924 35.1886ZM20.4238 46.6573L20.0251 47.3479L21.2211 48.0383V46.6573H20.4238ZM20.4238 23.8642H21.2211V23.4039L20.8225 23.1737L20.4238 23.8642ZM0.555924 12.3922L0.954627 11.7017L-0.241416 11.0111V12.3922H0.555924ZM20.6695 47.3323L20.6637 46.535C20.7616 46.5343 20.8578 46.5597 20.9423 46.6083L20.5449 47.2996L20.1476 47.9908C20.3079 48.083 20.49 48.131 20.6753 48.1297L20.6695 47.3323ZM20.5449 47.2996L20.9437 46.6091L0.584433 34.8521L0.185697 35.5425L-0.21304 36.233L20.1462 47.99L20.5449 47.2996ZM0.185697 35.5425L0.584285 34.852C0.669789 34.9013 0.740353 34.9724 0.788994 35.0578L0.0961984 35.4525L-0.596597 35.8472C-0.505344 36.0074 -0.372997 36.1407 -0.212892 36.2331L0.185697 35.5425ZM0.0961984 35.4525L0.789356 35.0584C0.837849 35.1437 0.862966 35.2407 0.861751 35.3394L0.0644715 35.3295L-0.732808 35.3197C-0.735083 35.5045 -0.688064 35.6863 -0.596959 35.8466L0.0961984 35.4525ZM0.0644715 35.3295H0.861812V11.9663H0.0644715H-0.732869V35.3295H0.0644715ZM0.0644715 11.9663L0.861751 11.9564C0.862961 12.0547 0.838033 12.1519 0.788995 12.238L0.0961984 11.8433L-0.596598 11.4486C-0.688248 11.6095 -0.735079 11.7917 -0.732808 11.9761L0.0644715 11.9663ZM0.0961984 11.8433L0.789355 12.2374C0.740279 12.3237 0.669258 12.3948 0.584285 12.4438L0.185697 11.7533L-0.212892 11.0627C-0.372466 11.1548 -0.50527 11.288 -0.596958 11.4492L0.0961984 11.8433ZM0.185697 11.7533L0.601897 12.4334C0.512673 12.488 0.410987 12.5161 0.30856 12.5161V11.7188V10.9214C0.119435 10.9214 -0.067271 10.9733 -0.230504 11.0732L0.185697 11.7533ZM0.30856 11.7188V12.5161C0.206133 12.5161 0.104447 12.488 0.0152228 12.4334L0.431423 11.7533L0.847623 11.0732C0.684389 10.9733 0.497682 10.9214 0.30856 10.9214V11.7188ZM0.431423 11.7533L0.0326885 12.4438L20.3919 24.2007L20.7907 23.5102L21.1894 22.8198L0.830158 11.0628L0.431423 11.7533ZM20.7907 23.5102L20.4082 24.2099C20.3199 24.1616 20.2471 24.0908 20.1965 24.0058L20.8816 23.598L21.5668 23.1902C21.4724 23.0315 21.3367 22.9 21.1731 22.8106L20.7907 23.5102ZM20.8816 23.598L20.1961 24.0052C20.1449 23.9189 20.1181 23.8209 20.1179 23.7214L20.9152 23.7199L21.7125 23.7185C21.7122 23.5332 21.6623 23.351 21.5672 23.1909L20.8816 23.598ZM20.9152 23.7199H20.1179V47.0866H20.9152H21.7126V23.7199H20.9152ZM20.9152 47.0866L20.1179 47.0968C20.1166 46.9952 20.143 46.8953 20.1943 46.8077L20.8825 47.2103L21.5707 47.613C21.6658 47.4504 21.7149 47.2648 21.7125 47.0763L20.9152 47.0866ZM20.8825 47.2103L20.1939 46.8083C20.2454 46.7203 20.3197 46.6483 20.4085 46.5998L20.7907 47.2996L21.1728 47.9994C21.3379 47.9092 21.4758 47.7755 21.5711 47.6123L20.8825 47.2103ZM20.7907 47.2996L20.3769 46.618C20.4695 46.5618 20.5757 46.5333 20.6829 46.5351L20.6695 47.3323L20.6561 48.1296C20.8486 48.1328 21.0388 48.0817 21.2044 47.9811L20.7907 47.2996ZM0.555924 35.1886L0.157306 35.8792L20.0251 47.3479L20.4238 46.6573L20.8224 45.9668L0.954542 34.4981L0.555924 35.1886ZM20.4238 46.6573H21.2211V23.8642H20.4238H19.6264V46.6573H20.4238ZM20.4238 23.8642L20.8225 23.1737L0.954627 11.7017L0.555924 12.3922L0.157221 13.0827L20.0251 24.5547L20.4238 23.8642ZM0.555924 12.3922H-0.241416V35.1886H0.555924H1.35326V12.3922H0.555924Z" fill="#412A1F" fill-opacity="0.7" mask="url(#path-1-inside-1_104_4037)"/>
<mask id="path-3-inside-2_104_4037" fill="white">
<path d="M20.6029 47.3323C20.5602 47.3331 20.5182 47.3217 20.4817 47.2996C20.444 47.2782 20.4127 47.2473 20.3907 47.2099C20.3689 47.1724 20.3573 47.1299 20.3572 47.0866V23.7199C20.3579 23.6772 20.3698 23.6353 20.3916 23.5986C20.4135 23.5618 20.4445 23.5314 20.4817 23.5102L40.8541 11.7533C40.8911 11.7306 40.9336 11.7188 40.9769 11.7188C41.0202 11.7188 41.0628 11.7306 41.0998 11.7533C41.1374 11.7746 41.1688 11.8056 41.1907 11.843C41.2125 11.8804 41.2242 11.9229 41.2243 11.9663V35.3295C41.2242 35.3728 41.2125 35.4154 41.1907 35.4528C41.1688 35.4902 41.1374 35.5212 41.0998 35.5425L20.7274 47.2996C20.6896 47.3213 20.6466 47.3327 20.6029 47.3323ZM20.8486 23.8642V46.6606L40.7197 35.1919V12.3922L20.8486 23.8642Z"/>
</mask>
<path d="M20.6029 47.3323C20.5602 47.3331 20.5182 47.3217 20.4817 47.2996C20.444 47.2782 20.4127 47.2473 20.3907 47.2099C20.3689 47.1724 20.3573 47.1299 20.3572 47.0866V23.7199C20.3579 23.6772 20.3698 23.6353 20.3916 23.5986C20.4135 23.5618 20.4445 23.5314 20.4817 23.5102L40.8541 11.7533C40.8911 11.7306 40.9336 11.7188 40.9769 11.7188C41.0202 11.7188 41.0628 11.7306 41.0998 11.7533C41.1374 11.7746 41.1688 11.8056 41.1907 11.843C41.2125 11.8804 41.2242 11.9229 41.2243 11.9663V35.3295C41.2242 35.3728 41.2125 35.4154 41.1907 35.4528C41.1688 35.4902 41.1374 35.5212 41.0998 35.5425L20.7274 47.2996C20.6896 47.3213 20.6466 47.3327 20.6029 47.3323ZM20.8486 23.8642V46.6606L40.7197 35.1919V12.3922L20.8486 23.8642Z" fill="#9B8B7A"/>
<path d="M20.6029 47.3323L20.6087 46.535L20.5991 46.535L20.5895 46.5351L20.6029 47.3323ZM20.4817 47.2996L20.8955 46.618L20.8852 46.6118L20.8748 46.6059L20.4817 47.2996ZM20.3907 47.2099L19.7019 47.6114L19.7029 47.6131L20.3907 47.2099ZM20.3572 47.0866H19.5598L19.5598 47.0895L20.3572 47.0866ZM20.3572 23.7199L19.5598 23.7066V23.7199H20.3572ZM20.4817 23.5102L20.8753 24.2037L20.8803 24.2008L20.4817 23.5102ZM40.8541 11.7533L41.2526 12.4439L41.2616 12.4387L41.2704 12.4333L40.8541 11.7533ZM41.0998 11.7533L40.6835 12.4333L40.6947 12.4402L40.7061 12.4466L41.0998 11.7533ZM41.2243 11.9663H42.0216L42.0216 11.9648L41.2243 11.9663ZM41.2243 35.3295L42.0216 35.331V35.3295H41.2243ZM41.0998 35.5425L40.7061 34.8492L40.7013 34.8519L41.0998 35.5425ZM20.7274 47.2996L21.1248 47.9908L21.126 47.9902L20.7274 47.2996ZM20.8486 23.8642L20.45 23.1737L20.0513 23.4038V23.8642H20.8486ZM20.8486 46.6606H20.0513V48.0414L21.2472 47.3512L20.8486 46.6606ZM40.7197 35.1919L41.1183 35.8825L41.5171 35.6523V35.1919H40.7197ZM40.7197 12.3922H41.5171V11.0112L40.3211 11.7017L40.7197 12.3922ZM20.6029 47.3323L20.5895 46.5351C20.6967 46.5333 20.8029 46.5618 20.8955 46.618L20.4817 47.2996L20.068 47.9811C20.2336 48.0817 20.4238 48.1328 20.6163 48.1296L20.6029 47.3323ZM20.4817 47.2996L20.8748 46.6059C20.9597 46.654 21.0298 46.7234 21.0786 46.8066L20.3907 47.2099L19.7029 47.6131C19.7955 47.7711 19.9283 47.9024 20.0886 47.9933L20.4817 47.2996ZM20.3907 47.2099L21.0796 46.8083C21.1283 46.8918 21.1542 46.9868 21.1545 47.0836L20.3572 47.0866L19.5598 47.0895C19.5605 47.273 19.6095 47.4529 19.7019 47.6114L20.3907 47.2099ZM20.3572 47.0866H21.1545V23.7199H20.3572H19.5598V47.0866H20.3572ZM20.3572 23.7199L21.1544 23.7333C21.1528 23.8294 21.1261 23.9234 21.0771 24.0059L20.3916 23.5986L19.7062 23.1912C19.6134 23.3473 19.563 23.525 19.5599 23.7066L20.3572 23.7199ZM20.3916 23.5986L21.0771 24.0059C21.0284 24.0879 20.9589 24.1562 20.8753 24.2037L20.4817 23.5102L20.0882 22.8168C19.93 22.9065 19.7986 23.0358 19.7062 23.1912L20.3916 23.5986ZM20.4817 23.5102L20.8803 24.2008L41.2526 12.4439L40.8541 11.7533L40.4555 11.0627L20.0832 22.8196L20.4817 23.5102ZM40.8541 11.7533L41.2704 12.4333C41.1811 12.488 41.0793 12.5161 40.9769 12.5161V11.7188V10.9214C40.7878 10.9214 40.6011 10.9733 40.4378 11.0732L40.8541 11.7533ZM40.9769 11.7188V12.5161C40.8746 12.5161 40.7729 12.4881 40.6835 12.4333L41.0998 11.7533L41.5161 11.0732C41.3527 10.9732 41.1659 10.9214 40.9769 10.9214V11.7188ZM41.0998 11.7533L40.7061 12.4466C40.6222 12.399 40.5516 12.3298 40.5022 12.2452L41.1907 11.843L41.8792 11.4408C41.7861 11.2814 41.6527 11.1503 41.4935 11.0599L41.0998 11.7533ZM41.1907 11.843L40.5022 12.2452C40.4535 12.1619 40.4271 12.0662 40.4269 11.9677L41.2243 11.9663L42.0216 11.9648C42.0213 11.7795 41.9715 11.5989 41.8792 11.4408L41.1907 11.843ZM41.2243 11.9663H40.4269V35.3295H41.2243H42.0216V11.9663H41.2243ZM41.2243 35.3295L40.4269 35.3281C40.4271 35.2296 40.4535 35.1341 40.5022 35.0506L41.1907 35.4528L41.8792 35.855C41.9716 35.6968 42.0213 35.5161 42.0216 35.331L41.2243 35.3295ZM41.1907 35.4528L40.5022 35.0506C40.5516 34.966 40.6222 34.8968 40.7061 34.8492L41.0998 35.5425L41.4935 36.2359C41.6527 36.1455 41.7861 36.0144 41.8792 35.855L41.1907 35.4528ZM41.0998 35.5425L40.7013 34.8519L20.3289 46.609L20.7274 47.2996L21.126 47.9902L41.4983 36.2331L41.0998 35.5425ZM20.7274 47.2996L20.3301 46.6083C20.4146 46.5597 20.5108 46.5343 20.6087 46.535L20.6029 47.3323L20.5971 48.1297C20.7824 48.131 20.9645 48.083 21.1248 47.9908L20.7274 47.2996ZM20.8486 23.8642H20.0513V46.6606H20.8486H21.646V23.8642H20.8486ZM20.8486 46.6606L21.2472 47.3512L41.1183 35.8825L40.7197 35.1919L40.3212 34.5013L20.4501 45.97L20.8486 46.6606ZM40.7197 35.1919H41.5171V12.3922H40.7197H39.9224V35.1919H40.7197ZM40.7197 12.3922L40.3211 11.7017L20.45 23.1737L20.8486 23.8642L21.2473 24.5547L41.1184 13.0828L40.7197 12.3922Z" fill="#412A1F" fill-opacity="0.7" mask="url(#path-3-inside-2_104_4037)"/>
<mask id="path-5-inside-3_104_4037" fill="white">
<path d="M20.6686 23.9294C20.6249 23.9297 20.5819 23.9184 20.544 23.8966L0.184786 12.1396C0.148119 12.1178 0.117743 12.0869 0.0966452 12.0499C0.0755473 12.0128 0.0644531 11.9708 0.0644531 11.9283C0.0644531 11.8856 0.0755473 11.8437 0.0966452 11.8067C0.117743 11.7696 0.148119 11.7386 0.184786 11.7169L20.4162 0.0319439C20.4539 0.0109961 20.4961 0 20.5392 0C20.5821 0 20.6244 0.0109961 20.662 0.0319439L41.0245 11.789C41.0618 11.8105 41.0927 11.8416 41.114 11.879C41.1353 11.9165 41.1463 11.9589 41.1458 12.0019C41.1456 12.0449 41.1344 12.0871 41.1132 12.1244C41.0919 12.1617 41.0613 12.1929 41.0245 12.2149L20.7898 23.8966C20.7532 23.9188 20.7112 23.9301 20.6686 23.9294ZM0.800738 11.9299L20.6686 23.3986L40.4086 11.9987L20.5408 0.530011L0.800738 11.9299Z"/>
</mask>
<path d="M20.6686 23.9294C20.6249 23.9297 20.5819 23.9184 20.544 23.8966L0.184786 12.1396C0.148119 12.1178 0.117743 12.0869 0.0966452 12.0499C0.0755473 12.0128 0.0644531 11.9708 0.0644531 11.9283C0.0644531 11.8856 0.0755473 11.8437 0.0966452 11.8067C0.117743 11.7696 0.148119 11.7386 0.184786 11.7169L20.4162 0.0319439C20.4539 0.0109961 20.4961 0 20.5392 0C20.5821 0 20.6244 0.0109961 20.662 0.0319439L41.0245 11.789C41.0618 11.8105 41.0927 11.8416 41.114 11.879C41.1353 11.9165 41.1463 11.9589 41.1458 12.0019C41.1456 12.0449 41.1344 12.0871 41.1132 12.1244C41.0919 12.1617 41.0613 12.1929 41.0245 12.2149L20.7898 23.8966C20.7532 23.9188 20.7112 23.9301 20.6686 23.9294ZM0.800738 11.9299L20.6686 23.3986L40.4086 11.9987L20.5408 0.530011L0.800738 11.9299Z" fill="#9B8B7A"/>
<path d="M20.6686 23.9294L20.682 23.1322L20.6724 23.132L20.6627 23.1321L20.6686 23.9294ZM20.544 23.8966L20.1453 24.5871L20.1467 24.5879L20.544 23.8966ZM0.184786 12.1396L-0.222281 12.8252L-0.21395 12.83L0.184786 12.1396ZM0.0966452 12.0499L-0.596362 12.4442L-0.595997 12.4448L0.0966452 12.0499ZM0.0966452 11.8067L0.789287 12.2016L0.789653 12.201L0.0966452 11.8067ZM0.184786 11.7169L-0.214022 11.0264L-0.222252 11.0313L0.184786 11.7169ZM20.4162 0.0319439L20.0284 -0.664821L20.0174 -0.658509L20.4162 0.0319439ZM20.662 0.0319439L21.0608 -0.658647L21.0498 -0.664734L20.662 0.0319439ZM41.0245 11.789L40.6258 12.4795L40.626 12.4796L41.0245 11.789ZM41.114 11.879L41.8073 11.4852L41.8063 11.4834L41.114 11.879ZM41.1458 12.0019L40.3485 11.9931L40.3484 11.999L41.1458 12.0019ZM41.1132 12.1244L41.8057 12.5195L41.8064 12.5184L41.1132 12.1244ZM41.0245 12.2149L41.4232 12.9055L41.4335 12.8994L41.0245 12.2149ZM20.7898 23.8966L20.3911 23.2061L20.3835 23.2105L20.376 23.215L20.7898 23.8966ZM0.800738 11.9299L0.401991 11.2394L-0.793892 11.93L0.40212 12.6204L0.800738 11.9299ZM20.6686 23.3986L20.2699 24.0891L20.6687 24.3193L21.0673 24.089L20.6686 23.3986ZM40.4086 11.9987L40.8073 12.6891L42.0032 11.9985L40.8072 11.3081L40.4086 11.9987ZM20.5408 0.530011L20.9394 -0.160536L20.5407 -0.390687L20.142 -0.160461L20.5408 0.530011ZM20.6686 23.9294L20.6627 23.1321C20.7607 23.1313 20.8568 23.1567 20.9414 23.2053L20.544 23.8966L20.1467 24.5879C20.307 24.68 20.4891 24.7281 20.6744 24.7267L20.6686 23.9294ZM20.544 23.8966L20.9428 23.2061L0.583523 11.4491L0.184786 12.1396L-0.21395 12.83L20.1453 24.5871L20.544 23.8966ZM0.184786 12.1396L0.591825 11.454C0.674052 11.5028 0.742038 11.572 0.789288 11.6549L0.0966452 12.0499L-0.595997 12.4448C-0.506552 12.6017 -0.377814 12.7328 -0.222252 12.8252L0.184786 12.1396ZM0.0966452 12.0499L0.789652 11.6555C0.836888 11.7386 0.861793 11.8325 0.861793 11.9283H0.0644531H-0.732887C-0.732887 12.1092 -0.685794 12.287 -0.596362 12.4442L0.0966452 12.0499ZM0.0644531 11.9283H0.861793C0.861793 12.0237 0.83701 12.1179 0.789287 12.2016L0.0966452 11.8067L-0.595996 11.4117C-0.685915 11.5694 -0.732887 11.7475 -0.732887 11.9283H0.0644531ZM0.0966452 11.8067L0.789653 12.201C0.742323 12.2842 0.674149 12.3536 0.591825 12.4025L0.184786 11.7169L-0.222252 11.0313C-0.377911 11.1237 -0.506836 11.255 -0.596362 11.4123L0.0966452 11.8067ZM0.184786 11.7169L0.583567 12.4073L20.815 0.722397L20.4162 0.0319439L20.0174 -0.658509L-0.213994 11.0264L0.184786 11.7169ZM20.4162 0.0319439L20.804 0.728622C20.7234 0.773508 20.6322 0.79734 20.5392 0.79734V0V-0.79734C20.36 -0.79734 20.1843 -0.751516 20.0284 -0.664734L20.4162 0.0319439ZM20.5392 0V0.79734C20.4459 0.79734 20.3548 0.773446 20.2742 0.728622L20.662 0.0319439L21.0498 -0.664734C20.894 -0.751454 20.7184 -0.79734 20.5392 -0.79734V0ZM20.662 0.0319439L20.2633 0.72245L40.6258 12.4795L41.0245 11.789L41.4232 11.0985L21.0607 -0.658562L20.662 0.0319439ZM41.0245 11.789L40.626 12.4796C40.5401 12.43 40.4699 12.3589 40.4217 12.2745L41.114 11.879L41.8063 11.4834C41.7154 11.3243 41.5835 11.191 41.423 11.0983L41.0245 11.789ZM41.114 11.879L40.4207 12.2728C40.3722 12.1873 40.3474 12.0907 40.3485 11.9931L41.1458 12.0019L41.9431 12.0108C41.9451 11.827 41.8985 11.6456 41.8073 11.4852L41.114 11.879ZM41.1458 12.0019L40.3484 11.999C40.3488 11.9048 40.3734 11.8124 40.4199 11.7305L41.1132 12.1244L41.8064 12.5184C41.8953 12.3618 41.9424 12.185 41.9431 12.0049L41.1458 12.0019ZM41.1132 12.1244L40.4206 11.7293C40.4672 11.6476 40.5343 11.579 40.6155 11.5304L41.0245 12.2149L41.4335 12.8994C41.5884 12.8068 41.7165 12.6759 41.8057 12.5195L41.1132 12.1244ZM41.0245 12.2149L40.6259 11.5244L20.3911 23.2061L20.7898 23.8966L21.1884 24.5871L41.4232 12.9055L41.0245 12.2149ZM20.7898 23.8966L20.376 23.215C20.4686 23.1588 20.5747 23.1303 20.682 23.1322L20.6686 23.9294L20.6552 24.7266C20.8477 24.7298 21.0379 24.6787 21.2035 24.5782L20.7898 23.8966ZM0.800738 11.9299L0.40212 12.6204L20.2699 24.0891L20.6686 23.3986L21.0672 22.708L1.19936 11.2393L0.800738 11.9299ZM20.6686 23.3986L21.0673 24.089L40.8073 12.6891L40.4086 11.9987L40.0098 11.3082L20.2698 22.7081L20.6686 23.3986ZM40.4086 11.9987L40.8072 11.3081L20.9394 -0.160536L20.5408 0.530011L20.1421 1.22056L40.01 12.6892L40.4086 11.9987ZM20.5408 0.530011L20.142 -0.160461L0.401991 11.2394L0.800738 11.9299L1.19949 12.6203L20.9395 1.22048L20.5408 0.530011Z" fill="#412A1F" fill-opacity="0.7" mask="url(#path-5-inside-3_104_4037)"/>
<path d="M20.5095 23.7939V40.5322L5.92261 32.1104V15.3691L20.5095 23.7939Z" stroke="#412A1F" stroke-opacity="0.7" stroke-width="0.3"/>
<path d="M35.3506 32.1094L20.7627 40.5322V23.7939L35.3506 15.3682V32.1094Z" stroke="#412A1F" stroke-opacity="0.7" stroke-width="0.3"/>
<path d="M35.3828 15.5977L20.8877 23.9668L6.30078 15.542L20.7949 7.17285L35.3828 15.5977Z" stroke="#412A1F" stroke-opacity="0.7" stroke-width="0.3"/>
<mask id="path-10-inside-4_104_4037" fill="white">
<path d="M20.5673 6.78289C20.5349 6.78334 20.5028 6.77728 20.4727 6.76509C20.4427 6.7529 20.4155 6.73481 20.3926 6.7119C20.3696 6.68899 20.3516 6.66172 20.3394 6.63171C20.3272 6.60169 20.3212 6.56954 20.3216 6.53714L20.2954 0.245757C20.2954 0.180579 20.3212 0.118069 20.3673 0.0719806C20.4134 0.0258922 20.4759 0 20.5411 0C20.606 0.00084867 20.668 0.0270133 20.7139 0.0729191C20.7598 0.118825 20.786 0.180842 20.7869 0.245757L20.813 6.54042C20.813 6.60559 20.7872 6.6681 20.7411 6.71419C20.695 6.76028 20.6325 6.78617 20.5673 6.78617V6.78289Z"/>
</mask>
<path d="M20.5673 6.78289C20.5349 6.78334 20.5028 6.77728 20.4727 6.76509C20.4427 6.7529 20.4155 6.73481 20.3926 6.7119C20.3696 6.68899 20.3516 6.66172 20.3394 6.63171C20.3272 6.60169 20.3212 6.56954 20.3216 6.53714L20.2954 0.245757C20.2954 0.180579 20.3212 0.118069 20.3673 0.0719806C20.4134 0.0258922 20.4759 0 20.5411 0C20.606 0.00084867 20.668 0.0270133 20.7139 0.0729191C20.7598 0.118825 20.786 0.180842 20.7869 0.245757L20.813 6.54042C20.813 6.60559 20.7872 6.6681 20.7411 6.71419C20.695 6.76028 20.6325 6.78617 20.5673 6.78617V6.78289Z" fill="#9B8B7A"/>
<path d="M20.5673 6.78289H21.3646V5.97448L20.5563 5.98563L20.5673 6.78289ZM20.4727 6.76509L20.1723 7.50368L20.173 7.50396L20.4727 6.76509ZM20.3926 6.7119L20.9567 6.14843L20.9558 6.14745L20.3926 6.7119ZM20.3394 6.63171L19.6007 6.93186L19.6008 6.93192L20.3394 6.63171ZM20.3216 6.53714L21.1189 6.54695L21.1189 6.53382L20.3216 6.53714ZM20.2954 0.245757H19.4981L19.4981 0.249071L20.2954 0.245757ZM20.3673 0.0719806L20.9312 0.635756L20.9312 0.635754L20.3673 0.0719806ZM20.5411 0L20.5516 -0.79734H20.5411V0ZM20.7139 0.0729191L20.1502 0.636835L20.1502 0.636836L20.7139 0.0729191ZM20.7869 0.245757L21.5842 0.242444L21.5841 0.234986L20.7869 0.245757ZM20.813 6.54042H21.6104L21.6103 6.5371L20.813 6.54042ZM20.5673 6.78617H19.7699V7.58351H20.5673V6.78617ZM20.5673 6.78289L20.5563 5.98563C20.6308 5.9846 20.7043 5.99857 20.7724 6.02622L20.4727 6.76509L20.173 7.50396C20.3013 7.55599 20.439 7.58208 20.5783 7.58016L20.5673 6.78289ZM20.4727 6.76509L20.7731 6.0265C20.8416 6.05437 20.9041 6.09575 20.9567 6.14843L20.3926 6.7119L19.8285 7.27538C19.9269 7.37388 20.0439 7.45143 20.1723 7.50368L20.4727 6.76509ZM20.3926 6.7119L20.9558 6.14745C21.0093 6.20087 21.0505 6.26374 21.0781 6.33149L20.3394 6.63171L19.6008 6.93192C19.6527 7.05971 19.73 7.17712 19.8294 7.27636L20.3926 6.7119ZM20.3394 6.63171L21.0781 6.33156C21.106 6.40019 21.1197 6.47345 21.1188 6.54695L20.3216 6.53714L19.5243 6.52733C19.5226 6.66563 19.5484 6.80318 19.6007 6.93186L20.3394 6.63171ZM20.3216 6.53714L21.1189 6.53382L21.0927 0.242443L20.2954 0.245757L19.4981 0.249071L19.5242 6.54045L20.3216 6.53714ZM20.2954 0.245757H21.0928C21.0928 0.391544 21.0349 0.531971 20.9312 0.635756L20.3673 0.0719806L19.8035 -0.491795C19.6076 -0.295834 19.4981 -0.0303865 19.4981 0.245757H20.2954ZM20.3673 0.0719806L20.9312 0.635754C20.8277 0.739276 20.6873 0.79734 20.5411 0.79734V0V-0.79734C20.2645 -0.79734 19.9992 -0.687491 19.8035 -0.491793L20.3673 0.0719806ZM20.5411 0L20.5307 0.797272C20.3875 0.795399 20.251 0.737594 20.1502 0.636835L20.7139 0.0729191L21.2776 -0.490997C21.085 -0.683568 20.8246 -0.793702 20.5516 -0.797272L20.5411 0ZM20.7139 0.0729191L20.1502 0.636836C20.049 0.535635 19.9915 0.399098 19.9896 0.256529L20.7869 0.245757L21.5841 0.234986C21.5804 -0.0374129 21.4707 -0.297986 21.2776 -0.490998L20.7139 0.0729191ZM20.7869 0.245757L19.9895 0.24907L20.0157 6.54373L20.813 6.54042L21.6103 6.5371L21.5842 0.242445L20.7869 0.245757ZM20.813 6.54042H20.0157C20.0157 6.39462 20.0735 6.2542 20.1773 6.15042L20.7411 6.71419L21.3049 7.27796C21.5009 7.08201 21.6104 6.81657 21.6104 6.54042H20.813ZM20.7411 6.71419L20.1773 6.15042C20.2808 6.04689 20.4211 5.98883 20.5673 5.98883V6.78617V7.58351C20.8439 7.58351 21.1093 7.47367 21.3049 7.27796L20.7411 6.71419ZM20.5673 6.78617H21.3646V6.78289H20.5673H19.7699V6.78617H20.5673Z" fill="#412A1F" fill-opacity="0.7" mask="url(#path-10-inside-4_104_4037)"/>
<mask id="path-12-inside-5_104_4037" fill="white">
<path d="M0.244368 35.6179C0.190365 35.6176 0.137964 35.5996 0.0952674 35.5665C0.0525701 35.5334 0.0219556 35.4871 0.00815685 35.435C-0.00564193 35.3827 -0.00185641 35.3274 0.0189282 35.2776C0.0397127 35.2277 0.0763387 35.1861 0.123143 35.1592L5.65035 31.9872C5.70607 31.9564 5.77166 31.9489 5.83296 31.966C5.89426 31.9832 5.94635 32.0237 5.97799 32.079C6.00792 32.1349 6.01509 32.2002 5.99799 32.2613C5.9809 32.3224 5.94086 32.3744 5.88625 32.4067L0.365593 35.5819C0.329436 35.6051 0.287382 35.6177 0.244368 35.6179Z"/>
</mask>
<path d="M0.244368 35.6179C0.190365 35.6176 0.137964 35.5996 0.0952674 35.5665C0.0525701 35.5334 0.0219556 35.4871 0.00815685 35.435C-0.00564193 35.3827 -0.00185641 35.3274 0.0189282 35.2776C0.0397127 35.2277 0.0763387 35.1861 0.123143 35.1592L5.65035 31.9872C5.70607 31.9564 5.77166 31.9489 5.83296 31.966C5.89426 31.9832 5.94635 32.0237 5.97799 32.079C6.00792 32.1349 6.01509 32.2002 5.99799 32.2613C5.9809 32.3224 5.94086 32.3744 5.88625 32.4067L0.365593 35.5819C0.329436 35.6051 0.287382 35.6177 0.244368 35.6179Z" fill="#9B8B7A"/>
<path d="M0.244368 35.6179L0.239658 36.4153L0.248802 36.4152L0.244368 35.6179ZM0.0952674 35.5665L0.583713 34.9363L0.583707 34.9362L0.0952674 35.5665ZM0.00815685 35.435L-0.762733 35.6386L-0.762656 35.6389L0.00815685 35.435ZM0.0189282 35.2776L0.754834 35.5845H0.754834L0.0189282 35.2776ZM0.123143 35.1592L-0.273725 34.4676L-0.274744 34.4682L0.123143 35.1592ZM5.65035 31.9872L5.26478 31.2892L5.25348 31.2957L5.65035 31.9872ZM5.83296 31.966L5.61819 32.7339L5.61822 32.7339L5.83296 31.966ZM5.97799 32.079L6.68086 31.7025L6.67554 31.6926L6.66995 31.6828L5.97799 32.079ZM5.99799 32.2613L5.23018 32.0463L5.23015 32.0464L5.99799 32.2613ZM5.88625 32.4067L6.2838 33.0979L6.29139 33.0934L5.88625 32.4067ZM0.365593 35.5819L-0.0319356 34.8907L-0.0492778 34.9007L-0.066098 34.9115L0.365593 35.5819ZM0.244368 35.6179L0.249077 34.8206C0.369508 34.8213 0.487282 34.8615 0.583713 34.9363L0.0952674 35.5665L-0.393178 36.1967C-0.211354 36.3376 0.0112217 36.4139 0.239659 36.4152L0.244368 35.6179ZM0.0952674 35.5665L0.583707 34.9362C0.679437 35.0104 0.748009 35.114 0.77897 35.231L0.00815685 35.435L-0.762656 35.6389C-0.704098 35.8602 -0.574297 36.0563 -0.393173 36.1967L0.0952674 35.5665ZM0.00815685 35.435L0.779047 35.2313C0.80998 35.3484 0.801537 35.4725 0.754834 35.5845L0.0189282 35.2776L-0.716977 34.9707C-0.80525 35.1823 -0.821263 35.4171 -0.762733 35.6386L0.00815685 35.435ZM0.0189282 35.2776L0.754834 35.5845C0.708206 35.6963 0.626058 35.7897 0.52103 35.8501L0.123143 35.1592L-0.274744 34.4682C-0.47338 34.5826 -0.62878 34.7592 -0.716977 34.9707L0.0189282 35.2776ZM0.123143 35.1592L0.520011 35.8507L6.04721 32.6788L5.65035 31.9872L5.25348 31.2957L-0.273725 34.4676L0.123143 35.1592ZM5.65035 31.9872L6.03587 32.6852C5.90791 32.7558 5.75785 32.7729 5.61819 32.7339L5.83296 31.966L6.04773 31.1981C5.78547 31.1248 5.50423 31.157 5.26483 31.2893L5.65035 31.9872ZM5.83296 31.966L5.61822 32.7339C5.47766 32.6946 5.35839 32.6016 5.28602 32.4752L5.97799 32.079L6.66995 31.6828C6.53431 31.4459 6.31087 31.2717 6.0477 31.1981L5.83296 31.966ZM5.97799 32.079L5.27511 32.4555C5.20787 32.3299 5.19182 32.1833 5.23018 32.0463L5.99799 32.2613L6.7658 32.4763C6.83836 32.2171 6.80797 31.9399 6.68086 31.7025L5.97799 32.079ZM5.99799 32.2613L5.23015 32.0464C5.26854 31.9092 5.35851 31.7922 5.48111 31.7199L5.88625 32.4067L6.29139 33.0934C6.5232 32.9566 6.69325 32.7355 6.76583 32.4762L5.99799 32.2613ZM5.88625 32.4067L5.48872 31.7155L-0.0319356 34.8907L0.365593 35.5819L0.763122 36.273L6.28378 33.0978L5.88625 32.4067ZM0.365593 35.5819L-0.066098 34.9115C0.0249729 34.8528 0.131087 34.8212 0.239934 34.8206L0.244368 35.6179L0.248802 36.4152C0.443678 36.4141 0.6339 36.3574 0.797285 36.2522L0.365593 35.5819Z" fill="#412A1F" fill-opacity="0.7" mask="url(#path-12-inside-5_104_4037)"/>
<mask id="path-14-inside-6_104_4037" fill="white">
<path d="M40.9005 35.618C40.8565 35.6172 40.8136 35.6047 40.7759 35.5819L35.3765 32.41C35.3466 32.3947 35.3202 32.3735 35.2989 32.3478C35.2774 32.3219 35.2616 32.292 35.2522 32.2597C35.2428 32.2276 35.2402 32.1938 35.2443 32.1606C35.2485 32.1273 35.2594 32.0952 35.2765 32.0663C35.2934 32.0374 35.3162 32.0123 35.3433 31.9925C35.3704 31.9728 35.4012 31.9588 35.4339 31.9514C35.4666 31.944 35.5005 31.9433 35.5334 31.9495C35.5664 31.9557 35.5977 31.9685 35.6255 31.9873L41.0249 35.1592C41.079 35.192 41.1184 35.2443 41.1348 35.3053C41.1513 35.3663 41.1436 35.4314 41.1134 35.4869C41.0924 35.5254 41.0616 35.5577 41.0243 35.5806C40.987 35.6036 40.9442 35.6165 40.9005 35.618Z"/>
</mask>
<path d="M40.9005 35.618C40.8565 35.6172 40.8136 35.6047 40.7759 35.5819L35.3765 32.41C35.3466 32.3947 35.3202 32.3735 35.2989 32.3478C35.2774 32.3219 35.2616 32.292 35.2522 32.2597C35.2428 32.2276 35.2402 32.1938 35.2443 32.1606C35.2485 32.1273 35.2594 32.0952 35.2765 32.0663C35.2934 32.0374 35.3162 32.0123 35.3433 31.9925C35.3704 31.9728 35.4012 31.9588 35.4339 31.9514C35.4666 31.944 35.5005 31.9433 35.5334 31.9495C35.5664 31.9557 35.5977 31.9685 35.6255 31.9873L41.0249 35.1592C41.079 35.192 41.1184 35.2443 41.1348 35.3053C41.1513 35.3663 41.1436 35.4314 41.1134 35.4869C41.0924 35.5254 41.0616 35.5577 41.0243 35.5806C40.987 35.6036 40.9442 35.6165 40.9005 35.618Z" fill="#9B8B7A"/>
<path d="M40.9005 35.618L40.886 36.4152L40.9063 36.4155L40.9266 36.4149L40.9005 35.618ZM40.7759 35.5819L41.1892 34.9L41.1798 34.8944L40.7759 35.5819ZM35.3765 32.41L35.7804 31.7225L35.7598 31.7104L35.7384 31.6995L35.3765 32.41ZM35.2989 32.3478L35.9125 31.8387L35.9124 31.8385L35.2989 32.3478ZM35.2522 32.2597L36.0176 32.0362L36.0174 32.0357L35.2522 32.2597ZM35.2765 32.0663L35.9634 32.4712L35.9637 32.4706L35.2765 32.0663ZM35.4339 31.9514L35.6099 32.7291L35.6103 32.729L35.4339 31.9514ZM35.5334 31.9495L35.6814 31.166L35.6796 31.1657L35.5334 31.9495ZM35.6255 31.9873L35.1801 32.6486L35.2005 32.6623L35.2216 32.6748L35.6255 31.9873ZM41.0249 35.1592L41.4383 34.4773L41.4288 34.4717L41.0249 35.1592ZM41.1348 35.3053L40.3649 35.5126L40.3651 35.5135L41.1348 35.3053ZM41.1134 35.4869L41.8131 35.8692L41.8137 35.8681L41.1134 35.4869ZM40.9005 35.618L40.9149 34.8207C41.0121 34.8225 41.1067 34.8501 41.1892 34.9L40.7759 35.5819L40.3627 36.2638C40.5204 36.3594 40.7008 36.4118 40.886 36.4152L40.9005 35.618ZM40.7759 35.5819L41.1798 34.8944L35.7804 31.7225L35.3765 32.41L34.9727 33.0975L40.3721 36.2694L40.7759 35.5819ZM35.3765 32.41L35.7384 31.6995C35.8063 31.7341 35.8653 31.7817 35.9125 31.8387L35.2989 32.3478L34.6852 32.8569C34.7752 32.9653 34.887 33.0554 35.0146 33.1204L35.3765 32.41ZM35.2989 32.3478L35.9124 31.8385C35.9619 31.8982 35.997 31.9658 36.0176 32.0362L35.2522 32.2597L34.4869 32.4833C34.5262 32.6181 34.593 32.7457 34.6854 32.8571L35.2989 32.3478ZM35.2522 32.2597L36.0174 32.0357C36.0391 32.1097 36.0447 32.1857 36.0355 32.2592L35.2443 32.1606L34.4531 32.0619C34.4357 32.2019 34.4465 32.3456 34.487 32.4838L35.2522 32.2597ZM35.2443 32.1606L36.0355 32.2592C36.0262 32.3343 36.0015 32.4064 35.9634 32.4712L35.2765 32.0663L34.5896 31.6614C34.5173 31.7841 34.4708 31.9203 34.4531 32.0619L35.2443 32.1606ZM35.2765 32.0663L35.9637 32.4706C35.9256 32.5354 35.8744 32.592 35.8132 32.6367L35.3433 31.9925L34.8734 31.3484C34.7579 31.4326 34.6613 31.5395 34.5892 31.662L35.2765 32.0663ZM35.3433 31.9925L35.8132 32.6367C35.7521 32.6813 35.6828 32.7126 35.6099 32.7291L35.4339 31.9514L35.2579 31.1737C35.1196 31.205 34.9887 31.2643 34.8734 31.3484L35.3433 31.9925ZM35.4339 31.9514L35.6103 32.729C35.5368 32.7457 35.4609 32.747 35.3873 32.7333L35.5334 31.9495L35.6796 31.1657C35.5401 31.1396 35.3964 31.1423 35.2575 31.1738L35.4339 31.9514ZM35.5334 31.9495L35.3854 32.733C35.3123 32.7192 35.2424 32.6906 35.1801 32.6486L35.6255 31.9873L36.0709 31.3259C35.953 31.2465 35.8204 31.1922 35.6814 31.166L35.5334 31.9495ZM35.6255 31.9873L35.2216 32.6748L40.6211 35.8467L41.0249 35.1592L41.4288 34.4717L36.0294 31.2998L35.6255 31.9873ZM41.0249 35.1592L40.6116 35.841C40.4907 35.7678 40.402 35.6504 40.3649 35.5126L41.1348 35.3053L41.9047 35.098C41.8348 34.8382 41.6673 34.6162 41.4383 34.4774L41.0249 35.1592ZM41.1348 35.3053L40.3651 35.5135C40.328 35.3765 40.3452 35.2304 40.4132 35.1056L41.1134 35.4869L41.8137 35.8681C41.9421 35.6323 41.9745 35.3561 41.9045 35.0971L41.1348 35.3053ZM41.1134 35.4869L40.4138 35.1045C40.4596 35.0206 40.5263 34.9509 40.6064 34.9016L41.0243 35.5806L41.4422 36.2597C41.5969 36.1645 41.7251 36.0302 41.8131 35.8692L41.1134 35.4869ZM41.0243 35.5806L40.6064 34.9016C40.6865 34.8523 40.7787 34.8242 40.8743 34.821L40.9005 35.618L40.9266 36.4149C41.1098 36.4089 41.2874 36.3549 41.4422 36.2597L41.0243 35.5806Z" fill="#412A1F" fill-opacity="0.7" mask="url(#path-14-inside-6_104_4037)"/>
</svg>
