<svg width="167" height="139" viewBox="0 0 167 139" fill="none" xmlns="http://www.w3.org/2000/svg">
<path d="M30.6183 71.7967C30.6051 69.7721 30.5918 67.7476 30.8792 65.5388C40.6034 65.3418 50.0272 65.3551 59.4504 65.2972C61.7265 65.2833 64.0006 65.0335 66.5136 64.8497C67.2229 63.7602 68.1002 62.7148 68.1051 61.6663C68.189 43.8845 68.1461 26.1022 68.1874 8.32008C68.1926 6.09028 68.516 3.86105 68.9391 1.60675C70.0158 1.59961 70.8453 1.61728 71.6897 1.83552C71.8742 3.59683 72.1883 5.15732 72.1915 6.71831C72.2271 24.0406 72.1914 41.3631 72.2647 58.6853C72.2699 59.9005 72.9852 61.1134 73.388 62.514C73.7983 63.5691 74.191 64.4377 74.5837 65.3062C76.3588 65.1939 78.134 65.0816 80.332 65.0216C81.5566 65.1427 82.3585 65.2114 83.2285 65.4197C83.775 65.4478 84.626 65.4 84.6686 65.2142C84.8709 64.3307 84.9058 63.4096 84.9063 62.5019C84.9166 43.8361 84.8975 25.1703 84.9449 6.50463C84.9488 4.95296 85.3844 3.40211 85.8231 1.78218C87.2099 1.68798 88.3929 1.6625 89.6112 1.81726C90.7154 2.32934 91.7812 2.94041 92.8536 2.94908C102.147 3.02426 111.441 2.99116 121.006 2.99144C133.333 2.9943 145.389 3.02975 157.444 2.93805C158.486 2.93014 159.519 2.08159 160.82 1.59549C162.686 1.54021 164.287 1.51298 165.889 1.48573C167.52 3.53414 167.197 5.65956 165.867 7.90427C165.409 7.98284 165.308 7.96775 165.206 7.72954C165.204 6.03493 165.204 4.56342 165.204 3.09193C164.745 2.8254 164.287 2.55884 163.829 2.29231C165.212 7.36784 161.689 6.47161 158.985 6.47869C150.167 6.50177 141.349 6.47447 132.531 6.50239C131.282 6.50633 129.671 6.1091 129.196 7.90899C127.957 8.29836 126.953 8.66369 125.949 9.02903C125.949 27.6662 125.949 46.3034 125.949 65.3199C132.654 65.3199 139.179 65.3199 146.054 65.4304C146.579 65.5907 146.699 65.6895 146.764 65.8375C146.764 65.8375 146.72 65.8053 146.725 66.0196C146.743 68.115 146.757 69.996 146.771 71.8771C146.771 71.8771 146.777 71.8275 146.527 71.8141C140.44 71.806 134.601 71.7653 128.765 71.8632C127.82 71.8791 126.888 72.5095 125.95 72.8558C125.943 91.0322 125.909 109.209 125.953 127.385C125.96 130.502 126.302 133.618 126.373 137.044C126.209 137.517 126.088 137.608 125.895 137.628C125.895 137.628 125.96 137.579 125.719 137.585C122.929 137.262 120.38 136.933 117.831 136.604C117.831 115.996 117.831 95.3884 117.826 74.3467C118.041 72.2836 117.16 71.7888 115.33 71.8053C108.174 71.8695 101.016 71.7944 93.8609 71.8708C92.9733 71.8803 92.0944 72.4874 91.0167 72.9037C90.5882 73.59 90.153 74.1896 90.1509 74.7904C90.1094 86.5487 90.0997 98.3073 90.1636 110.066C90.1674 110.764 90.844 111.46 91.2266 112.37C91.2631 113.151 91.2805 113.718 91.2979 114.285C91.6041 121.373 87.5259 126.751 81.6792 131.063C78.412 133.473 74.3505 135.168 70.428 136.79C68.592 137.55 66.2373 137.375 63.6111 137.601C60.5563 137.921 58.008 138.265 55.4598 138.608C54.154 138.614 52.8366 138.718 51.5448 138.605C49.133 138.393 46.736 138.054 44.0143 137.543C43.1049 136.861 42.514 136.403 41.923 135.945C41.6108 136.363 41.2986 136.781 40.9864 137.199C40.7358 137.176 40.4853 137.154 40.0283 136.922C39.9627 135.02 38.5263 134.808 37.1064 134.37C29.7511 132.105 23.7465 128.363 19.5118 122.554C14.6952 115.945 12.8703 108.666 12.7435 101.022C12.5979 92.2429 12.7096 83.4608 12.7096 74.6801C12.7097 52.9945 12.7106 31.309 12.7069 9.62355C12.7067 8.79371 12.7488 7.95074 12.5842 7.14223C12.5363 6.90649 11.8397 6.76908 11.2376 6.4843C7.93389 6.25031 4.83285 6.11862 1.73182 5.98695C1.15175 5.5962 0.151208 5.25882 0.0737078 4.80429C-0.125033 3.63821 0.0861717 2.42008 0.610234 1.09895C5.9324 1.01787 10.7778 1.06061 15.6596 1.28784C17.7661 1.99059 19.8363 2.50883 21.9596 3.0404C21.9596 4.07484 21.9597 5.2241 21.9596 6.37337C21.9581 36.4521 21.9519 66.5309 21.9663 96.6097C21.9672 98.5033 22.1017 100.398 22.2224 102.29C22.4803 106.328 22.4848 110.401 23.1634 114.387C23.518 116.471 25.0808 118.401 26.0979 120.4C26.318 120.333 26.538 120.266 26.7581 120.199C26.7075 119.655 26.6569 119.111 26.6063 118.566C27.5196 119.635 28.433 120.704 29.2707 121.96C26.5313 123.765 30.0696 123.743 30.2392 124.642C30.1856 124.107 30.132 123.572 30.0783 123.037C32.4221 124.676 34.6759 126.426 37.1363 127.922C39.3624 129.276 41.814 130.353 44.5561 131.704C49.2028 132.327 53.4516 132.879 57.724 133.188C58.4406 133.24 59.2595 132.238 60.0311 131.724C61.601 131.364 63.1709 131.004 65.1846 130.664C65.7783 130.702 65.9282 130.719 66.1866 130.823C66.7044 130.811 67.4425 130.758 67.4723 130.604C67.771 129.056 68.1351 127.491 68.1403 125.93C68.1879 111.561 68.1666 97.1913 68.1702 82.8218C68.1704 82.0752 67.9918 81.2463 68.3077 80.6073C68.5771 80.0623 69.4714 79.3674 70.0311 79.4039C70.7626 79.4516 71.7061 80.0312 72.0606 80.6093C72.4237 81.2015 72.2076 82.0681 72.2078 82.8145C72.2119 96.7688 72.2046 110.723 72.2235 124.677C72.2248 125.579 72.2327 126.538 72.5803 127.364C72.8958 128.112 73.6361 129.018 74.5153 127.607C74.5198 127.623 74.482 127.623 74.6939 127.614C77.1245 125.687 79.3517 123.777 81.5068 121.807C81.5539 121.764 80.776 121.049 80.383 120.647C80.8987 119.249 81.4143 117.852 82.2177 116.182C82.7214 114.97 83.1224 114.029 83.1256 113.088C83.1699 100.182 83.1704 87.2762 83.1377 74.3706C83.1354 73.4955 82.7812 72.6211 82.561 71.562C81.7694 71.0279 81.0221 70.4079 80.2428 70.3764C77.2008 70.2534 74.1487 70.3123 71.1003 70.3115C59.3604 70.3081 47.6201 70.2735 35.8812 70.3687C34.8975 70.3766 33.9233 71.2647 32.7127 71.7665C31.8599 71.7917 31.2391 71.7942 30.6183 71.7967ZM90.8192 9.17772C90.5864 9.8624 90.152 10.5467 90.1503 11.2318C90.1113 27.4794 90.1036 43.727 90.1652 59.9744C90.1682 60.7531 90.8589 61.5298 91.2817 62.7329C91.271 64.1286 91.2925 65.3822 93.6175 65.3627C100.913 65.3018 108.21 65.3703 115.505 65.2939C116.288 65.2857 117.062 64.656 117.835 63.8478C117.83 45.9266 117.825 28.0053 117.915 9.66257C117.967 8.13896 116.826 7.96554 115.436 7.96895C108.239 7.98657 101.043 7.94418 93.8475 8.02592C92.9621 8.03597 92.0861 8.66256 90.8192 9.17772ZM124.202 35.6512C124.202 45.2143 124.202 54.7775 124.202 64.3406C124.324 64.3394 124.445 64.3383 124.567 64.3371C124.567 46.2391 124.567 28.1411 124.567 10.0431C124.445 10.0433 124.324 10.0434 124.202 10.0436C124.202 18.4133 124.202 26.783 124.202 35.6512ZM89.8032 115.91C89.8841 115.595 89.9651 115.28 90.046 114.966C89.9115 114.953 89.777 114.94 89.6425 114.927C89.6425 115.212 89.6425 115.497 89.8032 115.91Z" fill="#8E7D62"/>
<path d="M26.6143 118.372C26.6575 119.111 26.7081 119.655 26.7587 120.199C26.5387 120.266 26.3187 120.333 26.0986 120.4C25.0815 118.401 23.5187 116.471 23.164 114.387C22.4854 110.401 22.481 106.328 22.2231 102.29C22.1023 100.398 21.9679 98.5033 21.967 96.6097C21.9526 66.5309 21.9588 36.4522 21.9603 6.3734C21.9604 5.22413 21.9603 4.07486 21.9603 3.04043C19.8369 2.50886 17.7667 1.99062 15.9258 1.26833C16.5397 1.05694 16.9247 1.03822 17.3092 1.04391C24.4265 1.14899 23.6632 -0.108246 23.67 6.61271C23.7049 40.7372 23.6814 74.8617 23.7049 108.986C23.7055 109.87 24.0115 110.753 24.175 111.636C24.9905 113.817 25.8061 115.997 26.6143 118.372Z" fill="#806F56"/>
<path d="M11.4375 6.58691C11.8368 6.76939 12.5334 6.90679 12.5814 7.14254C12.7459 7.95105 12.7039 8.79402 12.704 9.62386C12.7077 31.3093 12.7068 52.9949 12.7068 74.6804C12.7067 83.4611 12.595 92.2432 12.7406 101.022C12.8674 108.666 14.6923 115.946 19.5089 122.554C23.7437 128.364 29.7483 132.106 37.1036 134.371C38.5235 134.808 39.9599 135.021 39.8371 136.904C38.5738 136.931 37.2925 136.766 35.8813 136.26C34.8417 133.71 32.4653 134.032 30.4956 133.652C28.1474 132.176 25.7993 130.701 23.2331 129.006C22.6387 128.574 22.2622 128.361 21.8858 128.148C21.8858 128.148 21.9307 128.143 21.8914 128.029C21.6734 127.825 21.4949 127.735 21.3163 127.644C21.3163 127.644 21.3655 127.635 21.2925 127.564C21.1428 127.349 21.0228 127.241 20.8595 127.169C20.8595 127.169 20.7681 126.954 20.7484 126.665C19.9625 125.635 19.1964 124.895 18.4303 124.155C18.4303 124.155 18.4677 124.16 18.4813 123.994C17.7334 122.943 16.972 122.056 16.2106 121.17C16.2106 121.17 16.1343 120.968 16.1466 120.668C15.376 118.961 14.5931 117.554 13.8101 116.147C13.8101 116.147 13.8774 116.136 13.7749 116.113C13.5874 115.966 13.4989 115.844 13.4065 115.725C12.778 113.203 12.1494 110.682 11.5266 107.712C11.5007 73.7051 11.4691 40.146 11.4375 6.58691Z" fill="#847359"/>
<path d="M11.2379 6.48445C11.4722 40.1459 11.5038 73.705 11.5392 107.501C11.1383 106.248 10.4116 104.762 10.3849 103.268C10.272 96.9641 10.3731 90.6576 10.3856 84.3521C10.396 79.1742 10.3926 73.9963 10.3941 68.8184C10.396 61.9022 10.3978 54.986 10.3974 48.0698C10.3972 44.8478 10.6119 41.6121 10.3469 38.4062C9.56889 28.9934 11.043 19.5717 10.0585 10.1625C9.84519 8.12446 9.46747 6.71086 6.41623 7.07421C4.99238 7.24378 3.44112 6.61647 1.83984 6.16872C4.83308 6.11877 7.93412 6.25046 11.2379 6.48445Z" fill="#B2A081"/>
<path d="M73.369 62.3274C72.984 61.1134 72.2686 59.9005 72.2635 58.6853C72.1902 41.3631 72.2259 24.0406 72.1903 6.71827C72.1871 5.15729 71.873 3.59679 71.883 1.82715C72.8729 2.07584 73.6829 2.53343 74.493 2.99104C74.4931 6.31196 74.4932 9.63289 74.2055 13.3179C73.9633 14.2087 74.0089 14.7355 74.0546 15.2623C74.0221 16.9431 73.9896 18.6239 73.7158 20.3769C73.8142 20.7788 74.154 21.1085 74.4937 21.4383C74.5289 21.975 74.5639 22.5116 74.4195 23.2665C74.3249 23.6325 74.41 23.7803 74.4951 23.9281C74.5299 25.4461 74.5648 26.9641 74.3672 28.8126C74.1154 29.5027 74.0961 29.8624 74.0767 30.2221C74.1849 30.3387 74.2931 30.4554 74.0956 30.7884C73.6476 31.429 73.5053 31.8532 73.3631 32.2774L73.5826 32.3157C73.5826 32.3157 73.5878 32.5094 73.5193 32.7107C73.7985 33.7403 74.1461 34.5686 74.4938 35.3969C74.5279 36.2584 74.5621 37.1198 74.3589 38.2382C73.9679 38.6677 73.8141 38.8403 73.6603 39.0129C73.734 39.5735 73.8078 40.1341 73.6651 40.8052C73.7959 41.4017 74.1433 41.8879 74.4907 42.374C74.527 43.5621 74.5633 44.7503 74.3651 46.1538C74.2516 46.8663 74.3724 47.3635 74.4932 47.8606C74.5282 48.7219 74.5631 49.5832 74.3602 50.7007C73.9671 51.1291 73.8119 51.3013 73.6567 51.4736C73.6677 51.6871 73.6788 51.9006 73.5718 52.2476C73.7989 52.8675 74.1439 53.3539 74.4889 53.8402C74.524 54.7033 74.559 55.5663 74.4209 56.6674C74.3301 57.0471 74.4126 57.1887 74.495 57.3304C74.5287 57.8693 74.5623 58.4082 74.3619 59.2059C73.9399 60.0955 73.7521 60.7262 73.5204 61.5168C73.4407 61.8936 73.4049 62.1105 73.369 62.3274Z" fill="#806F56"/>
<path d="M30.7344 71.9716C31.2406 71.7944 31.8614 71.7919 32.9826 71.7827C49.8526 71.7663 66.2223 71.7564 82.5921 71.7466C82.7826 72.6213 83.1369 73.4957 83.1392 74.3708C83.1719 87.2764 83.1714 100.182 83.1271 113.088C83.1239 114.029 82.7229 114.97 82.3349 116.019C82.1124 104.016 82.0606 91.9053 82.0127 79.7948C82.0039 77.566 82.0115 75.3371 82.0115 72.7551C78.3725 72.7551 74.8535 72.7534 71.3346 72.7554C59.8694 72.7621 48.404 72.8006 36.9392 72.749C34.9079 72.7398 32.879 72.3568 30.7344 71.9716Z" fill="#BFAB8D"/>
<path d="M89.5754 1.63714C88.3923 1.66264 87.2093 1.68813 85.6477 1.74748C85.0354 1.80317 84.8016 1.82503 84.4678 1.78827C84.1861 1.82249 84.0046 1.91533 83.7991 2.21788C83.5894 4.14742 83.2469 5.86689 83.2418 7.58713C83.1845 26.8181 83.1792 46.0493 83.1598 65.2803C82.3579 65.2116 81.556 65.1429 80.5703 65.0065C81.7314 64.9638 82.0525 64.4645 82.0442 63.27C81.9677 52.1852 81.9973 41.0999 82.0017 30.0148C82.0053 21.2422 82.034 12.4696 82.0125 3.6971C82.0072 1.55965 83.3611 0.987689 85.5612 0.99519C95.3719 1.02865 105.183 1.01071 115.261 1.14513C115.528 1.27892 115.528 1.4734 115.259 1.49613C106.519 1.5583 98.0469 1.59772 89.5754 1.63714Z" fill="#C8AB87"/>
<path d="M65.3984 63.3902C65.3604 53.3577 65.3224 43.3253 65.4284 32.8763C65.6687 28.8494 65.853 25.2385 65.8333 21.6285C65.8178 18.7677 65.5521 15.9078 65.3975 13.0475C65.5016 9.48388 65.6056 5.92021 66.0057 2.17355C66.5405 1.99995 66.7793 2.00934 67.017 2.23861C67.0108 6.3325 67.0565 10.2072 66.99 14.0804C66.8534 22.0299 66.5294 29.9787 66.5226 37.928C66.5166 45.1309 66.8957 52.3336 66.9451 59.5372C66.9548 60.9585 66.2359 62.3836 65.7742 63.7397C65.5945 63.58 65.4954 63.4859 65.3984 63.3902Z" fill="#8E7D62"/>
<path d="M24.1997 111.406C24.0127 110.753 23.7068 109.87 23.7062 108.986C23.6826 74.8617 23.7062 40.7372 23.6713 6.6127C23.6644 -0.108261 24.4278 1.14897 17.3104 1.0439C16.926 1.0382 16.541 1.05692 15.8907 1.08382C10.7797 1.06062 5.93433 1.01788 0.816406 0.983948C0.998769 0.664799 1.4502 0.0553609 1.9091 0.0511615C8.63581 -0.0105963 15.3636 -0.0103833 22.0909 0.0198338C24.0351 0.0285517 24.6776 0.604532 24.4018 2.58892C23.9471 5.8608 24.2687 9.21337 24.2687 12.5319C24.2687 28.7935 24.2773 45.0551 24.2698 61.3167C24.2622 77.9366 24.2393 94.5564 24.1997 111.406Z" fill="#C2B090"/>
<path d="M91.5264 114.209C91.2799 113.718 91.2625 113.151 91.2465 112.14C91.2355 98.7364 91.2232 85.7771 91.2109 72.8179C92.0938 72.4877 92.9728 71.8806 93.8603 71.8711C101.016 71.7947 108.174 71.8698 115.33 71.8056C117.16 71.7891 118.04 72.2839 117.828 74.1269C117.071 73.8287 116.315 72.8835 115.541 72.8722C107.965 72.7607 100.386 72.805 92.5969 72.805C92.5333 73.6247 92.4301 74.3384 92.4298 75.0522C92.424 87.2428 92.4443 99.4334 92.4059 111.624C92.4032 112.461 91.982 113.296 91.5264 114.209Z" fill="#BFAB8D"/>
<path d="M65.957 78.2561C66.2442 77.9355 66.481 77.3847 66.8259 77.3285C73.599 76.2258 74.5332 76.8951 74.5362 82.7903C74.5432 96.3085 74.5243 109.827 74.6024 123.345C74.6057 123.923 73.3957 125.584 75.9918 125.334C75.6129 126.225 75.0478 126.924 74.4827 127.623C74.4827 127.623 74.5205 127.623 74.3499 127.486C73.9419 126.061 73.5044 124.774 73.4981 123.485C73.4325 110.122 73.4942 96.7591 73.3921 83.3969C73.3522 78.1716 74.8286 78.0804 66.8603 78.3315C66.4392 78.2925 66.1981 78.2743 65.957 78.2561Z" fill="#B2A081"/>
<path d="M126.215 9.00764C126.95 8.66376 127.954 8.29843 129.46 7.93359C141.709 7.94032 153.456 7.94654 165.204 7.95275C165.305 7.96783 165.406 7.98292 165.661 7.99162C164.747 8.3227 163.682 8.94778 162.613 8.95361C150.57 9.01937 138.527 8.98999 126.215 9.00764Z" fill="#BFAB8D"/>
<path d="M66.0757 130.736C65.9258 130.719 65.776 130.702 65.4031 130.648C65.2096 116.36 65.2348 102.107 65.272 87.8538C65.2799 84.8728 65.3321 81.8919 65.631 79.0103C65.9555 79.6676 66.0128 80.2256 66.0332 80.9947C66.0268 82.0513 66.0574 82.8967 66.0364 83.9597C66.0238 85.2095 66.0627 86.2418 66.0805 87.4335C66.0565 87.8067 66.0535 88.0205 65.9977 88.4542C65.9861 89.8675 66.0275 91.0607 66.046 92.4856C66.0406 105.39 66.0582 118.063 66.0757 130.736Z" fill="#C2B090"/>
<path d="M115.527 1.47334C115.527 1.47334 115.527 1.27886 115.528 1.18162C132.21 1.10266 148.893 1.12095 165.732 1.31252C164.286 1.51307 162.684 1.5403 160.552 1.57133C146.929 1.60542 133.836 1.63573 120.485 1.62954C118.66 1.55314 117.094 1.51323 115.527 1.47334Z" fill="#BFAB8D"/>
<path d="M126.215 72.8294C126.885 72.5095 127.816 71.8791 128.762 71.8632C134.597 71.7654 140.436 71.806 146.552 71.8172C145.987 72.1547 145.148 72.7417 144.298 72.7536C138.361 72.8366 132.421 72.8008 126.215 72.8294Z" fill="#BFAB8D"/>
<path d="M65.366 63.5772C65.4938 63.486 65.5928 63.5801 65.7768 63.8869C65.9976 64.365 66.1357 64.6287 66.2737 64.8925C63.9987 65.0338 61.7245 65.2835 59.4484 65.2975C50.0252 65.3554 40.6014 65.3421 30.9102 65.3316C31.3818 65.1466 32.1204 64.8467 32.8604 64.8441C42.325 64.811 51.7901 64.8507 61.2543 64.7859C62.6527 64.7763 64.4028 65.3481 65.366 63.5772Z" fill="#C2B090"/>
<path d="M59.7929 131.697C59.2598 132.239 58.4409 133.24 57.7243 133.188C53.4519 132.879 49.2031 132.327 44.75 131.792C49.5538 131.707 54.5541 131.688 59.7929 131.697Z" fill="#C2B090"/>
<path d="M74.6953 127.614C75.0485 126.924 75.6136 126.224 76.2015 125.366C77.5784 123.803 78.9325 122.398 80.3356 120.821C80.7775 121.049 81.5553 121.764 81.5083 121.807C79.3532 123.777 77.126 125.687 74.6953 127.614Z" fill="#817157"/>
<path d="M65.3665 13.2734C65.5517 15.9079 65.8174 18.7677 65.8329 21.6285C65.8526 25.2386 65.6683 28.8494 65.4818 32.6412C65.373 26.3814 65.3544 19.9404 65.3665 13.2734Z" fill="#C2B090"/>
<path d="M117.646 136.704C120.379 136.933 122.928 137.262 125.747 137.613C124.934 138.115 123.88 138.923 122.763 138.995C121.231 139.093 119.652 138.632 117.89 138.381C117.789 138.009 117.626 137.406 117.646 136.704Z" fill="#C2B090"/>
<path d="M55.7266 138.586C58.0091 138.265 60.5574 137.921 63.3776 137.609C62.5149 137.96 61.4028 138.43 60.24 138.559C58.8467 138.713 57.4101 138.575 55.7266 138.586Z" fill="#BFAB8D"/>
<path d="M67.0167 2.01875C66.7779 2.00936 66.5391 1.99998 66.1211 1.98397C66.1981 1.54733 66.4549 0.745256 66.7103 0.745606C68.9647 0.748603 71.2299 0.819216 73.4631 1.06485C73.8777 1.11046 74.1632 2.03071 74.5003 2.76925C73.6824 2.5336 72.8723 2.07601 71.8676 1.62672C70.8435 1.61741 70.014 1.59975 68.7619 1.605C67.8984 1.75818 67.4576 1.88847 67.0167 2.01875Z" fill="#B2A081"/>
<path d="M146.975 71.7752C146.756 69.996 146.742 68.115 146.742 66.0004C147.12 65.9446 147.81 66.1419 147.798 66.297C147.653 68.0928 147.403 69.8822 146.975 71.7752Z" fill="#BFAB8D"/>
<path d="M30.6016 133.805C32.4675 134.032 34.8439 133.709 35.7464 136.111C34.0612 135.522 32.3833 134.74 30.6016 133.805Z" fill="#8E7D62"/>
<path d="M16.1854 121.368C16.975 122.056 17.7364 122.943 18.4748 124.009C17.531 123.951 16.6102 123.713 15.543 123.437C15.7425 122.829 15.9499 122.198 16.1854 121.368Z" fill="#B2A081"/>
<path d="M13.8359 116.348C14.5955 117.554 15.3784 118.961 16.1565 120.562C15.3875 119.354 14.6234 117.952 13.8359 116.348Z" fill="#B2A081"/>
<path d="M41.1172 137.356C41.3004 136.781 41.6127 136.363 41.9249 135.945C42.5158 136.403 43.1068 136.861 43.7989 137.458C43.0154 137.57 42.1308 137.541 41.1172 137.356Z" fill="#847359"/>
<path d="M30.075 122.937C30.1308 123.573 30.1844 124.108 30.2381 124.643C30.0685 123.743 26.5301 123.766 29.378 122.114C29.5622 122.08 29.5154 122.123 29.5659 122.206C29.7174 122.43 29.846 122.548 30.0022 122.644C30.0022 122.644 30.0728 122.836 30.075 122.937Z" fill="#806F56"/>
<path d="M73.3867 62.5142C73.4049 62.1108 73.4407 61.8939 73.6061 61.6108C73.9669 61.7996 74.1981 62.0546 74.4292 62.3095C74.4655 63.1661 74.5018 64.0226 74.5602 65.0929C74.1898 64.4379 73.7971 63.5694 73.3867 62.5142Z" fill="#B2A081"/>
<path d="M18.4531 124.332C19.1982 124.895 19.9643 125.635 20.7535 126.55C20.0091 125.986 19.2416 125.248 18.4531 124.332Z" fill="#B2A081"/>
<path d="M66.0713 80.7838C66.014 80.2258 65.9567 79.6678 65.8577 78.9023C65.8162 78.6947 65.8534 78.4677 65.9043 78.3618C66.1962 78.2741 66.4373 78.2923 66.8508 78.5075C66.7058 79.3975 66.3886 80.0907 66.0713 80.7838Z" fill="#8E7D62"/>
<path d="M74.504 35.1584C74.1456 34.5686 73.7979 33.7403 73.4102 32.734C73.7314 32.6099 74.3931 32.6312 74.4064 32.7229C74.5123 33.4476 74.4945 34.1858 74.504 35.1584Z" fill="#C2B090"/>
<path d="M74.469 62.0998C74.2005 62.0544 73.9693 61.7995 73.6523 61.4508C73.7545 60.7264 73.9423 60.0957 74.3113 59.4043C74.4972 60.1926 74.5018 61.0414 74.469 62.0998Z" fill="#C2B090"/>
<path d="M74.5001 42.1212C74.1422 41.8879 73.7949 41.4018 73.4102 40.7183C75.5316 39.8511 74.0329 41.4811 74.5001 42.1212Z" fill="#C2B090"/>
<path d="M74.5056 47.6754C74.3734 47.3638 74.2526 46.8666 74.3128 46.3726C74.5016 46.747 74.5093 47.1184 74.5056 47.6754Z" fill="#C2B090"/>
<path d="M74.4974 53.5886C74.1414 53.3539 73.7964 52.8676 73.4102 52.1855C75.4933 51.3398 74.0554 52.934 74.4974 53.5886Z" fill="#C2B090"/>
<path d="M73.5463 32.5133C73.5044 31.8532 73.6466 31.429 73.9383 30.8281C73.9686 31.3508 73.8495 32.05 73.5463 32.5133Z" fill="#C2B090"/>
<path d="M74.5029 21.1719C74.1538 21.1089 73.8141 20.7791 73.418 20.2669C73.6074 19.966 73.8532 19.8475 74.099 19.729C74.2367 20.121 74.3745 20.5131 74.5029 21.1719Z" fill="#C2B090"/>
<path d="M21.9258 128.318C22.2657 128.361 22.6421 128.574 23.0542 128.937C22.7139 128.887 22.3381 128.688 21.9258 128.318Z" fill="#B2A081"/>
<path d="M74.2487 15.1448C74.009 14.7354 73.9633 14.2087 73.9854 13.4224C74.183 13.7844 74.3128 14.4059 74.2487 15.1448Z" fill="#C2B090"/>
<path d="M74.261 30.1295C74.0943 29.8624 74.1136 29.5027 74.3133 29.0361C74.4781 29.2985 74.4626 29.6677 74.261 30.1295Z" fill="#C2B090"/>
<path d="M74.5045 57.2111C74.4129 57.1889 74.3304 57.0472 74.3692 56.8794C74.4904 56.8533 74.5137 57.0918 74.5045 57.2111Z" fill="#C2B090"/>
<path d="M126.027 137.595C126.088 137.608 126.209 137.516 126.322 137.261C126.434 137.352 126.358 137.483 126.027 137.595Z" fill="#C2B090"/>
<path d="M146.721 65.7208C146.698 65.6896 146.579 65.5907 146.305 65.4734C146.424 65.362 146.582 65.428 146.721 65.7208Z" fill="#BFAB8D"/>
<path d="M21.3516 127.785C21.4995 127.734 21.6781 127.824 21.8992 128.048C21.7552 128.096 21.5687 128.01 21.3516 127.785Z" fill="#B2A081"/>
<path d="M20.8711 127.296C21.0247 127.241 21.1447 127.349 21.2999 127.585C21.2126 127.593 21.0467 127.509 20.8711 127.296Z" fill="#B2A081"/>
<path d="M73.8915 51.6069C73.8121 51.3016 73.9673 51.1294 74.3068 50.9121C74.3694 51.158 74.2477 51.449 73.8915 51.6069Z" fill="#C2B090"/>
<path d="M29.9939 122.507C29.8483 122.548 29.7197 122.43 29.543 122.186C29.6392 122.18 29.8113 122.275 29.9939 122.507Z" fill="#8E7D62"/>
<path d="M74.5086 23.807C74.4131 23.7803 74.328 23.6326 74.3707 23.4641C74.4985 23.4435 74.5191 23.6858 74.5086 23.807Z" fill="#C2B090"/>
<path d="M73.8963 39.1446C73.8151 38.8402 73.9689 38.6676 74.3065 38.4492C74.3707 38.6945 74.2511 38.9855 73.8963 39.1446Z" fill="#C2B090"/>
<path d="M13.4219 115.842C13.5025 115.844 13.591 115.966 13.7855 116.141C13.7045 116.17 13.5507 116.092 13.4219 115.842Z" fill="#B2A081"/>
<path d="M66.0321 80.995C66.3864 80.0908 66.7036 79.3977 67.0285 78.5284C74.8245 78.0804 73.348 78.1716 73.3879 83.3968C73.4901 96.759 73.4284 110.122 73.4939 123.485C73.5002 124.774 73.9377 126.061 74.3412 127.47C73.6326 129.018 72.8924 128.113 72.5769 127.364C72.2293 126.539 72.2213 125.579 72.2201 124.678C72.2011 110.723 72.2084 96.769 72.2044 82.8148C72.2041 82.0683 72.4203 81.2017 72.0572 80.6095C71.7027 80.0314 70.7591 79.4518 70.0277 79.4041C69.468 79.3677 68.5737 80.0626 68.3043 80.6075C67.9883 81.2466 68.167 82.0754 68.1668 82.822C68.1632 97.1916 68.1844 111.561 68.1369 125.931C68.1317 127.491 67.7676 129.056 67.4689 130.604C67.4391 130.759 66.701 130.811 66.1832 130.824C66.0571 118.064 66.0395 105.391 66.2054 92.3871C66.2758 90.7825 66.1627 89.5085 66.0496 88.2345C66.0525 88.0208 66.0554 87.807 66.2344 87.335C66.3025 85.9654 66.1948 84.8539 66.087 83.7425C66.0563 82.897 66.0257 82.0516 66.0321 80.995Z" fill="#817157"/>
<path d="M83.2285 65.4196C83.1797 46.049 83.185 26.8179 83.2424 7.58687C83.2475 5.86663 83.59 4.14717 83.9862 2.17888C84.3205 1.9025 84.4444 1.87456 84.5684 1.84664C84.8022 1.82478 85.0359 1.80292 85.4446 1.81591C85.3844 3.402 84.9488 4.95285 84.9448 6.50452C84.8975 25.1702 84.9166 43.836 84.9063 62.5018C84.9057 63.4095 84.8709 64.3306 84.6685 65.2141C84.626 65.3998 83.775 65.4477 83.2285 65.4196Z" fill="#847359"/>
<path d="M117.868 9.87367C117.1 9.71014 116.383 9.01798 115.656 9.01047C108.003 8.93133 100.349 8.96152 92.5527 8.96152C92.5527 27.6194 92.5527 46.0326 92.5527 64.8147C94.5869 64.8147 96.6614 64.8398 98.7347 64.81C104.959 64.7205 111.182 64.6097 117.624 64.411C117.063 64.6563 116.289 65.286 115.506 65.2942C108.211 65.3707 100.914 65.3021 93.6187 65.3631C91.2938 65.3825 91.2723 64.1289 91.2729 62.2888C91.2443 44.2308 91.2256 26.6173 91.207 9.00377C92.0874 8.66289 92.9633 8.03631 93.8488 8.02625C101.044 7.94452 108.241 7.98691 115.437 7.96929C116.828 7.96588 117.968 8.1393 117.868 9.87367Z" fill="#BFAB8D"/>
<path d="M67.0154 2.23873C67.4574 1.88855 67.8982 1.75827 68.5145 1.62988C68.514 3.86127 68.1906 6.0905 68.1854 8.3203C68.1441 26.1024 68.187 43.8847 68.1031 61.6665C68.0982 62.715 67.2209 63.7604 66.5116 64.8499C66.1357 64.6287 65.9976 64.3649 65.8555 63.954C66.2343 62.3837 66.9532 60.9586 66.9435 59.5373C66.8941 52.3337 66.515 45.131 66.521 37.9281C66.5278 29.9788 66.8518 22.0301 66.9884 14.0805C67.0549 10.2073 67.0092 6.33262 67.0154 2.23873Z" fill="#817157"/>
<path d="M82.5588 71.5622C66.2187 71.7565 49.849 71.7663 33.2109 71.7601C33.9212 71.2649 34.8953 70.3769 35.879 70.369C47.618 70.2738 59.3583 70.3084 71.0982 70.3117C74.1466 70.3126 77.1987 70.2536 80.2407 70.3767C81.02 70.4082 81.7672 71.0282 82.5588 71.5622Z" fill="#847359"/>
<path d="M91.0136 9.09082C91.2255 26.6172 91.2441 44.2307 91.2466 62.076C90.86 61.53 90.1693 60.7533 90.1663 59.9747C90.1047 43.7272 90.1124 27.4796 90.1514 11.232C90.1531 10.5469 90.5875 9.86263 91.0136 9.09082Z" fill="#806F56"/>
<path d="M120.743 1.66628C133.836 1.63597 146.929 1.60566 160.288 1.59961C159.517 2.08193 158.484 2.93047 157.443 2.93838C145.387 3.03008 133.331 2.99463 121.004 2.82559C120.737 2.3276 120.74 1.99693 120.743 1.66628Z" fill="#817157"/>
<path d="M165.204 7.72972C153.458 7.94664 141.71 7.94042 129.696 7.90965C129.669 6.10927 131.28 6.50651 132.529 6.50257C141.347 6.47465 150.165 6.50194 158.983 6.47886C161.687 6.47179 165.21 7.36801 163.827 2.29248C164.285 2.55902 164.744 2.82557 165.202 3.09211C165.202 4.5636 165.202 6.0351 165.204 7.72972Z" fill="#817157"/>
<path d="M120.484 1.62956C120.74 1.99671 120.737 2.32738 120.734 2.82421C111.439 2.99127 102.145 3.02437 92.8517 2.94919C91.7794 2.94052 90.7135 2.32945 89.6094 1.81737C98.0457 1.59768 106.517 1.55826 115.258 1.49609C117.093 1.51326 118.66 1.55317 120.484 1.62956Z" fill="#847359"/>
<path d="M91.0161 72.9038C91.2233 85.7769 91.2356 98.7362 91.2274 111.926C90.8435 111.46 90.1668 110.764 90.163 110.066C90.0992 98.3074 90.1089 86.5488 90.1504 74.7905C90.1525 74.1897 90.5877 73.5901 91.0161 72.9038Z" fill="#806F56"/>
<path d="M124.203 35.4018C124.203 26.7829 124.203 18.4132 124.203 10.0435C124.325 10.0433 124.446 10.0432 124.568 10.043C124.568 28.141 124.568 46.239 124.568 64.337C124.446 64.3381 124.325 64.3393 124.203 64.3405C124.203 54.7774 124.203 45.2142 124.203 35.4018Z" fill="#817157"/>
<path d="M89.721 115.846C89.6406 115.498 89.6406 115.213 89.6406 114.928C89.7751 114.94 89.9097 114.953 90.0442 114.966C89.9632 115.281 89.8823 115.595 89.721 115.846Z" fill="#806F56"/>
<path d="M82.3201 119.913C82.3074 119.918 82.3328 119.909 82.3201 119.913V119.913Z" fill="#817157"/>
<path d="M84.4661 1.78809C84.4422 1.87461 84.3183 1.90255 84.0079 1.96922C84.0029 1.91513 84.1845 1.82229 84.4661 1.78809Z" fill="#8E7D62"/>
<path d="M65.9979 88.4546C66.1639 89.5086 66.2771 90.7826 66.2297 92.1555C66.0277 91.0611 65.9863 89.8679 65.9979 88.4546Z" fill="#8E7D62"/>
<path d="M66.0373 83.96C66.1967 84.8539 66.3045 85.9653 66.2574 87.1756C66.0636 86.2421 66.0247 85.2098 66.0373 83.96Z" fill="#8E7D62"/>
</svg>
