<svg width="24" height="24" viewBox="0 0 24 24" fill="none" xmlns="http://www.w3.org/2000/svg">
<g clip-path="url(#clip0_184_23393)">
<path d="M17 21V19C17 16.79 15.21 15 13 15H5C2.79 15 1 16.79 1 19V21" stroke="#C9A76A" stroke-width="2" stroke-linecap="round" stroke-linejoin="round"/>
<path d="M9 11C11.2091 11 13 9.20914 13 7C13 4.79086 11.2091 3 9 3C6.79086 3 5 4.79086 5 7C5 9.20914 6.79086 11 9 11Z" stroke="#C9A76A" stroke-width="2"/>
<path d="M23.0001 21.0002V19.0002C23.0001 17.4502 22.0001 16.1402 20.6401 15.6602" stroke="#C9A76A" stroke-width="2" stroke-linecap="round" stroke-linejoin="round"/>
<path d="M16 3.12988C17.36 3.60988 18.36 4.91988 18.36 6.46988C18.36 8.01988 17.36 9.32988 16 9.80988" stroke="#C9A76A" stroke-width="2" stroke-linecap="round" stroke-linejoin="round"/>
</g>
<defs>
<clipPath id="clip0_184_23393">
<rect width="24" height="24" fill="white"/>
</clipPath>
</defs>
</svg>
